<?xml version="1.0" encoding="UTF-8" standalone="no"?>
<!-- Created with Inkscape (http://www.inkscape.org/) -->

<svg
   xmlns:dc="http://purl.org/dc/elements/1.1/"
   xmlns:cc="http://creativecommons.org/ns#"
   xmlns:rdf="http://www.w3.org/1999/02/22-rdf-syntax-ns#"
   xmlns:svg="http://www.w3.org/2000/svg"
   xmlns="http://www.w3.org/2000/svg"
   xmlns:sodipodi="http://sodipodi.sourceforge.net/DTD/sodipodi-0.dtd"
   xmlns:inkscape="http://www.inkscape.org/namespaces/inkscape"
   id="svg8"
   version="1.1"
   viewBox="0 0 530.94904 37.695"
   height="37.695mm"
   width="530.94904mm"
   inkscape:version="0.92.2 5c3e80d, 2017-08-06"
   sodipodi:docname="equations_all.svg"
   inkscape:export-filename="/Users/mathieuboudreau/neuropoly/github/t1_notebooks/t1rho_blog/equation3.png"
   inkscape:export-xdpi="300"
   inkscape:export-ydpi="300">
  <sodipodi:namedview
     inkscape:window-maximized="0"
     inkscape:window-y="1"
     inkscape:window-x="0"
     inkscape:window-height="799"
     inkscape:window-width="1294"
     showgrid="false"
     inkscape:current-layer="svg8"
     inkscape:document-units="mm"
     inkscape:cy="-338.3167"
     inkscape:cx="-230.29817"
     inkscape:zoom="0.30009657"
     inkscape:pageshadow="2"
     inkscape:pageopacity="0.0"
     borderopacity="1.0"
     bordercolor="#666666"
     pagecolor="#ffffff"
     id="base"
     fit-margin-top="0"
     fit-margin-left="0"
     fit-margin-right="0"
     fit-margin-bottom="0" />
  <defs
     id="defs2" />
  <metadata
     id="metadata5">
    <rdf:RDF>
      <cc:Work
         rdf:about="">
        <dc:format>image/svg+xml</dc:format>
        <dc:type
           rdf:resource="http://purl.org/dc/dcmitype/StillImage" />
        <dc:title />
      </cc:Work>
    </rdf:RDF>
  </metadata>
  <g
     inkscape:label="Calque 1"
     inkscape:groupmode="layer"
     id="layer1"
     transform="translate(121.78628,-21.625372)" />
  <text
     xml:space="preserve"
     style="font-style:normal;font-weight:normal;font-size:13.22916603px;line-height:125%;font-family:sans-serif;letter-spacing:0px;word-spacing:0px;fill:#000000;fill-opacity:1;stroke:none;stroke-width:0.26458332px;stroke-linecap:butt;stroke-linejoin:miter;stroke-opacity:1"
     x="511.8577"
     y="22.88653"
     id="text5893"><tspan
       sodipodi:role="line"
       id="tspan5891"
       x="511.8577"
       y="22.88653"
       style="font-style:normal;font-variant:normal;font-weight:bold;font-stretch:normal;font-size:16.93333244px;font-family:'Times New Roman';-inkscape-font-specification:'Times New Roman, Bold';stroke-width:0.26458332px">(3)</tspan></text>
  <g
     id="g1161"
     transform="matrix(5.1548611,0,0,5.1548611,130.37876,-1917.265)"
     style="stroke-width:0.19399165">
    <g
       word-spacing="normal"
       letter-spacing="normal"
       font-size-adjust="none"
       font-stretch="normal"
       font-weight="normal"
       font-variant="normal"
       font-style="normal"
       stroke-miterlimit="10.433"
       xml:space="preserve"
       transform="matrix(0.05385,0,0,-0.05385,-9.42375,398.21178)"
       id="content"
       style="font-style:normal;font-variant:normal;font-weight:normal;font-stretch:normal;letter-spacing:normal;word-spacing:normal;text-anchor:start;fill:none;fill-opacity:1;fill-rule:evenodd;stroke:#000000;stroke-width:0.03763276;stroke-linecap:butt;stroke-linejoin:miter;stroke-miterlimit:10.43299961;stroke-dasharray:none;stroke-dashoffset:0;stroke-opacity:1"><path
         id="path1122"
         d="m 487.66,430.62 v 0.02 0.02 0.01 l -0.01,0.02 v 0.02 0.02 l -0.01,0.02 v 0.02 l -0.01,0.02 -0.01,0.02 -0.01,0.02 -0.01,0.02 -0.01,0.02 -0.01,0.02 -0.01,0.02 -0.02,0.02 -0.02,0.02 -0.01,0.02 -0.02,0.02 -0.02,0.02 -0.02,0.01 -0.03,0.02 -0.02,0.02 -0.03,0.01 -0.02,0.01 -0.03,0.01 -0.02,0.01 h -0.01 l -0.02,0.01 h -0.02 -0.01 l -0.02,0.01 h -0.02 -0.02 -0.02 -0.02 -0.02 -0.02 c -0.25,0 -0.31,-0.04 -0.9,-0.74 l -2.39,-2.85 c -1.3,2.35 -3.89,3.59 -7.13,3.59 -6.33,0 -12.3,-5.73 -12.3,-11.76 0,-4.03 2.65,-6.33 5.18,-7.06 l 5.32,-1.41 c 1.85,-0.44 4.6,-1.19 4.6,-5.28 0,-4.49 -4.1,-9.16 -8.97,-9.16 -3.19,0 -8.72,1.1 -8.72,7.27 0,1.2 0.25,2.39 0.3,2.69 0.04,0.2 0.09,0.25 0.09,0.36 0,0.5 -0.34,0.54 -0.59,0.54 -0.25,0 -0.35,-0.04 -0.5,-0.2 -0.21,-0.2 -2.99,-11.56 -2.99,-11.7 0,-0.3 0.25,-0.5 0.55,-0.5 0.25,0 0.3,0.04 0.89,0.75 l 2.45,2.82 c 2.14,-2.89 5.52,-3.57 8.41,-3.57 6.78,0 12.66,6.62 12.66,12.79 0,3.44 -1.69,5.14 -2.44,5.83 -1.14,1.16 -1.89,1.35 -6.33,2.5 -1.09,0.3 -2.89,0.8 -3.34,0.89 -1.35,0.46 -3.03,1.89 -3.03,4.53 0,4.05 3.98,8.28 8.71,8.28 4.15,0 7.18,-2.14 7.18,-7.73 0,-1.59 -0.21,-2.48 -0.21,-2.78 0,-0.05 0,-0.5 0.61,-0.5 0.5,0 0.55,0.16 0.74,1 z"
         inkscape:connector-curvature="0"
         style="fill:#000000;stroke-width:0" /><path
         id="path1124"
         d="m 505.48,384.05 v 0.02 0.03 0.01 l -0.01,0.02 v 0.01 0.02 l -0.01,0.02 -0.01,0.01 v 0.02 l -0.01,0.02 -0.02,0.02 -0.01,0.03 -0.02,0.02 -0.02,0.03 -0.02,0.03 -0.02,0.03 -0.03,0.03 -0.03,0.04 -0.01,0.02 -0.02,0.02 -0.02,0.02 -0.01,0.02 -0.02,0.02 -0.02,0.03 -0.02,0.02 -0.03,0.02 -0.02,0.03 -0.02,0.02 -0.03,0.03 -0.02,0.03 -0.03,0.03 -0.03,0.03 -0.03,0.03 -0.02,0.03 -0.04,0.03 -0.03,0.03 -0.03,0.04 -0.03,0.03 -0.04,0.04 -0.04,0.03 -0.03,0.04 -0.04,0.04 c -6.22,6.28 -7.82,15.69 -7.82,23.31 0,8.67 1.89,17.35 8.02,23.57 0.64,0.6 0.64,0.7 0.64,0.86 0,0.34 -0.19,0.48 -0.48,0.48 -0.5,0 -4.99,-3.38 -7.93,-9.7 -2.54,-5.49 -3.14,-11.02 -3.14,-15.21 0,-3.89 0.55,-9.9 3.28,-15.54 2.99,-6.13 7.29,-9.36 7.79,-9.36 0.29,0 0.48,0.14 0.48,0.5 z"
         inkscape:connector-curvature="0"
         style="fill:#000000;stroke-width:0" /><path
         id="path1126"
         d="m 541.5,429.73 h -30.45 l -0.94,-11.21 h 1.25 c 0.69,8.03 1.44,9.67 8.95,9.67 0.91,0 2.21,0 2.71,-0.11 1.04,-0.19 1.04,-0.74 1.04,-1.89 v -26.25 c 0,-1.71 0,-2.39 -5.23,-2.39 h -2 V 396 c 2.05,0.16 7.12,0.16 9.42,0.16 2.3,0 7.42,0 9.47,-0.16 v 1.55 h -2 c -5.24,0 -5.24,0.68 -5.24,2.39 v 26.25 c 0,1 0,1.7 0.91,1.89 0.55,0.11 1.89,0.11 2.84,0.11 7.52,0 8.27,-1.64 8.96,-9.67 h 1.25 z"
         inkscape:connector-curvature="0"
         style="fill:#000000;stroke-width:0" /><path
         id="path1128"
         d="m 561.7,415.33 -6.37,1.55 c -3.1,0.74 -5.03,3.43 -5.03,6.32 0,3.49 2.68,6.53 6.58,6.53 8.31,0 9.4,-8.17 9.7,-10.42 0.04,-0.29 0.04,-0.59 0.61,-0.59 0.64,0 0.64,0.25 0.64,1.2 v 10 c 0,0.86 0,1.2 -0.55,1.2 -0.34,0 -0.4,-0.04 -0.75,-0.65 l -1.73,-2.83 c -1.5,1.44 -3.55,3.48 -7.99,3.48 -5.53,0 -9.7,-4.39 -9.7,-9.67 0,-4.12 2.64,-7.76 6.51,-9.11 0.55,-0.2 3.1,-0.79 6.58,-1.64 1.35,-0.36 2.85,-0.7 4.24,-2.54 1.04,-1.3 1.54,-2.94 1.54,-4.58 0,-3.55 -2.48,-7.13 -6.67,-7.13 -1.45,0 -5.23,0.25 -7.87,2.69 -2.89,2.69 -3.05,5.88 -3.1,7.67 -0.04,0.5 -0.43,0.5 -0.59,0.5 -0.64,0 -0.64,-0.36 -0.64,-1.25 v -9.97 c 0,-0.84 0,-1.18 0.55,-1.18 0.34,0 0.39,0.09 0.73,0.64 0,0.04 0.16,0.2 1.8,2.84 1.54,-1.69 4.73,-3.48 9.17,-3.48 5.83,0 9.81,4.87 9.81,10.36 0,4.98 -3.28,9.06 -7.47,10.06 z"
         inkscape:connector-curvature="0"
         style="fill:#000000;stroke-width:0" /><path
         id="path1130"
         d="m 601.03,408.86 h -1.25 c -0.55,-5.09 -1.25,-11.31 -10.01,-11.31 h -4.08 c -2.35,0 -2.46,0.34 -2.46,1.98 v 26.56 c 0,1.69 0,2.39 4.74,2.39 h 1.65 v 1.55 c -1.79,-0.15 -6.32,-0.15 -8.37,-0.15 -1.94,0 -5.83,0 -7.58,0.15 v -1.55 h 1.21 c 3.82,0 3.93,-0.54 3.93,-2.34 v -26.25 c 0,-1.8 -0.11,-2.34 -3.93,-2.34 h -1.21 V 396 h 25.95 z"
         inkscape:connector-curvature="0"
         style="fill:#000000;stroke-width:0" /><path
         id="path1132"
         d="m 617.5,408.45 v 0.37 l -0.01,0.39 -0.01,0.39 -0.01,0.41 -0.04,0.84 -0.06,0.88 -0.08,0.92 -0.11,0.95 -0.13,0.98 -0.17,1 -0.19,1.02 -0.23,1.03 -0.27,1.06 -0.3,1.05 -0.35,1.07 -0.4,1.07 -0.21,0.53 -0.22,0.53 -0.24,0.53 -0.25,0.53 c -2.99,6.12 -7.27,9.36 -7.77,9.36 -0.29,0 -0.5,-0.19 -0.5,-0.48 0,-0.16 0,-0.26 0.94,-1.16 4.89,-4.92 7.73,-12.84 7.73,-23.27 0,-8.51 -1.84,-17.28 -8.03,-23.56 -0.64,-0.59 -0.64,-0.7 -0.64,-0.84 0,-0.3 0.21,-0.5 0.5,-0.5 0.5,0 4.97,3.39 7.93,9.72 2.53,5.46 3.12,11 3.12,15.18 z"
         inkscape:connector-curvature="0"
         style="fill:#000000;stroke-width:0" /><path
         id="path1134"
         d="m 670.58,412.3 h 0.14 0.15 0.14 l 0.07,0.01 h 0.08 l 0.07,0.01 0.07,0.01 0.07,0.01 0.07,0.01 0.07,0.01 0.06,0.02 0.07,0.02 0.06,0.02 0.06,0.02 0.06,0.03 0.06,0.03 0.05,0.04 0.05,0.04 0.05,0.04 0.04,0.04 0.04,0.05 0.02,0.03 0.02,0.03 0.01,0.02 0.02,0.03 0.01,0.04 0.01,0.03 0.02,0.03 0.01,0.04 0.01,0.03 0.01,0.04 v 0.04 l 0.01,0.04 v 0.04 l 0.01,0.04 v 0.05 0.04 c 0,1 -0.95,1 -1.64,1 h -29.85 c -0.7,0 -1.63,0 -1.63,-1 0,-0.98 0.93,-0.98 1.68,-0.98 z"
         inkscape:connector-curvature="0"
         style="fill:#000000;stroke-width:0" /><path
         id="path1136"
         d="m 670.63,402.62 0.06,0.01 h 0.07 0.14 0.14 l 0.07,0.01 h 0.07 l 0.06,0.01 0.07,0.01 0.07,0.01 0.07,0.01 0.07,0.01 0.06,0.02 0.07,0.02 0.06,0.02 0.06,0.02 0.05,0.03 0.06,0.03 0.05,0.04 0.05,0.04 0.05,0.04 0.04,0.05 0.02,0.02 0.02,0.03 0.02,0.02 0.02,0.03 0.01,0.03 0.02,0.03 0.01,0.03 0.01,0.04 0.02,0.03 0.01,0.03 0.01,0.04 0.01,0.04 v 0.04 l 0.01,0.04 v 0.04 l 0.01,0.04 v 0.05 0.04 c 0,1 -0.95,1 -1.69,1 h -29.75 c -0.75,0 -1.68,0 -1.68,-1 0,-1 0.93,-1 1.63,-1 z"
         inkscape:connector-curvature="0"
         style="fill:#000000;stroke-width:0" /><path
         id="path1138"
         d="m 721.05,430.62 v 0.02 0.02 l -0.01,0.01 v 0.02 0.02 l -0.01,0.02 v 0.02 l -0.01,0.02 v 0.02 l -0.01,0.02 -0.01,0.02 -0.01,0.02 -0.01,0.02 -0.01,0.02 -0.02,0.02 -0.01,0.02 -0.02,0.02 -0.02,0.02 -0.01,0.02 -0.02,0.02 -0.03,0.01 -0.02,0.02 -0.02,0.02 -0.03,0.01 -0.03,0.01 -0.03,0.01 -0.01,0.01 h -0.02 l -0.01,0.01 h -0.02 -0.02 l -0.02,0.01 h -0.01 -0.02 -0.02 -0.02 -0.02 -0.02 c -0.25,0 -0.31,-0.04 -0.91,-0.74 l -2.39,-2.85 c -1.29,2.35 -3.89,3.59 -7.12,3.59 -6.33,0 -12.3,-5.73 -12.3,-11.76 0,-4.03 2.64,-6.33 5.17,-7.06 l 5.33,-1.41 c 1.84,-0.44 4.6,-1.19 4.6,-5.28 0,-4.49 -4.1,-9.16 -8.97,-9.16 -3.19,0 -8.72,1.1 -8.72,7.27 0,1.2 0.25,2.39 0.29,2.69 0.05,0.2 0.1,0.25 0.1,0.36 0,0.5 -0.35,0.54 -0.6,0.54 -0.25,0 -0.34,-0.04 -0.5,-0.2 -0.2,-0.2 -2.98,-11.56 -2.98,-11.7 0,-0.3 0.25,-0.5 0.55,-0.5 0.25,0 0.29,0.04 0.89,0.75 l 2.45,2.82 c 2.14,-2.89 5.52,-3.57 8.41,-3.57 6.78,0 12.65,6.62 12.65,12.79 0,3.44 -1.68,5.14 -2.43,5.83 -1.14,1.16 -1.9,1.35 -6.33,2.5 -1.1,0.3 -2.89,0.8 -3.35,0.89 -1.34,0.46 -3.03,1.89 -3.03,4.53 0,4.05 3.99,8.28 8.72,8.28 4.14,0 7.17,-2.14 7.17,-7.73 0,-1.59 -0.2,-2.48 -0.2,-2.78 0,-0.05 0,-0.5 0.61,-0.5 0.5,0 0.55,0.16 0.73,1 z"
         inkscape:connector-curvature="0"
         style="fill:#000000;stroke-width:0" /><path
         id="path1140"
         d="m 737.5,399.67 v 0.71 l -0.02,0.68 -0.03,0.66 -0.04,0.64 -0.06,0.62 -0.07,0.59 -0.1,0.58 -0.1,0.56 -0.13,0.55 -0.15,0.52 -0.17,0.52 -0.19,0.5 -0.21,0.49 -0.24,0.48 -0.26,0.47 -0.14,0.23 -0.15,0.23 c -1.08,1.61 -3.23,3 -6.03,3 v -0.99 c 1.89,0 3.7,-1.14 4.33,-3.17 0.56,-1.87 0.59,-4.39 0.59,-7.42 0,-2.58 0,-5.16 -0.45,-7.34 -0.7,-3.17 -3.06,-3.94 -4.47,-3.94 v 0 c -1.59,0 -3.72,0.94 -4.42,3.8 -0.49,2.04 -0.49,4.9 -0.49,7.48 0,2.55 0,5.2 0.52,7.11 0.73,2.75 2.97,3.48 4.39,3.48 v 0.99 c -8.08,0 -8.08,-9.52 -8.08,-12.03 0,-2.5 0,-11.81 8.08,-11.81 8.09,0 8.09,9.31 8.09,11.81 z"
         inkscape:connector-curvature="0"
         style="fill:#000000;stroke-width:0" /><path
         id="path1142"
         d="m 751.15,407.52 h 0.14 0.16 0.17 0.17 l 0.19,0.01 h 0.2 l 0.21,0.01 0.22,0.01 0.22,0.01 0.23,0.01 0.24,0.01 0.25,0.02 0.25,0.02 0.25,0.02 0.53,0.05 0.53,0.07 0.55,0.08 0.54,0.09 0.54,0.11 0.54,0.12 0.26,0.07 0.26,0.08 0.25,0.08 0.25,0.08 0.24,0.09 0.24,0.1 c 3.48,1.5 3.73,4.43 3.73,5.12 0,2.2 -1.89,4.24 -5.33,4.24 v -1.1 c 2.35,0 3.69,-1.44 3.69,-3.14 0,-5.17 -7.97,-5.17 -10.02,-5.17 h -2.04 c 1.95,7.56 7.08,8.31 8.37,8.31 v 1.1 c -5.53,0 -13.04,-4.83 -13.04,-13.55 0,-5.08 2.93,-9.02 7.81,-9.02 7.12,0 11.31,5.28 11.31,5.88 0,0.29 -0.29,0.65 -0.59,0.65 -0.25,0 -0.35,-0.1 -0.66,-0.5 -3.94,-4.93 -9.36,-4.93 -9.95,-4.93 -3.89,0 -4.34,4.18 -4.34,5.78 0,0.59 0.04,2.14 0.79,5.19 z"
         inkscape:connector-curvature="0"
         style="fill:#000000;stroke-width:0" /><path
         id="path1144"
         d="m 790.92,433.52 h 0.06 0.05 0.11 0.12 0.06 l 0.06,0.01 h 0.06 l 0.05,0.01 0.06,0.01 0.06,0.01 0.06,0.01 0.05,0.02 0.06,0.01 0.05,0.02 0.05,0.02 0.05,0.03 0.05,0.02 0.04,0.03 0.04,0.03 0.04,0.04 0.04,0.04 0.02,0.02 0.01,0.02 0.02,0.02 0.02,0.03 0.01,0.02 0.01,0.03 0.02,0.02 0.01,0.03 0.01,0.03 0.01,0.03 v 0.03 l 0.01,0.03 0.01,0.04 v 0.03 l 0.01,0.04 v 0.03 0.04 0.04 c 0,0.86 -0.79,0.86 -1.39,0.86 h -20.76 c -0.57,0 -1.39,0 -1.39,-0.83 0,-0.87 0.79,-0.87 1.39,-0.87 z"
         inkscape:connector-curvature="0"
         style="fill:#000000;stroke-width:0" /><path
         id="path1146"
         d="m 823.53,455.89 h -19.06 l -0.58,-5.92 h 1.05 c 0.42,4.53 1.37,4.83 5.4,4.83 0.54,0 1.43,0 1.6,-0.03 0.7,-0.05 0.75,-0.15 0.75,-0.93 v -12.62 c 0,-0.8 0,-1.05 -2.66,-1.05 h -1.25 v -1.09 c 1.25,0.09 3.86,0.09 5.24,0.09 1.36,0 3.98,0 5.21,-0.09 v 1.09 H 818 c -2.67,0 -2.67,0.25 -2.67,1.05 v 12.62 c 0,0.74 0.05,0.86 0.7,0.93 0.22,0.03 1.06,0.03 1.61,0.03 4.05,0 4.98,-0.28 5.41,-4.83 h 1.04 z"
         inkscape:connector-curvature="0"
         style="fill:#000000;stroke-width:0" /><path
         id="path1148"
         d="m 841.33,455.94 v 0.04 0.04 0.03 0.04 0.03 0.04 0.03 0.04 l -0.01,0.03 v 0.03 0.03 l -0.01,0.03 -0.01,0.02 v 0.03 l -0.01,0.02 -0.01,0.03 -0.01,0.02 -0.01,0.02 -0.01,0.02 -0.02,0.02 -0.01,0.02 -0.02,0.01 -0.02,0.02 -0.02,0.01 -0.02,0.01 -0.01,0.01 h -0.02 l -0.01,0.01 h -0.01 -0.02 l -0.01,0.01 h -0.01 -0.02 l -0.02,0.01 h -0.01 -0.02 -0.02 -0.02 -0.01 c -0.13,0 -0.27,0 -0.5,-0.33 l -0.97,-1.43 c -1.18,1.06 -2.74,1.76 -5,1.76 -3.55,0 -6.08,-2.19 -6.08,-4.7 0,-1.41 0.73,-2.47 1.52,-3.13 1.26,-1.06 2.51,-1.31 3.65,-1.53 0.48,-0.11 3.77,-0.75 3.94,-0.78 1.67,-0.39 3.19,-1.64 3.19,-3.34 0,-1.77 -1.74,-3.54 -4.63,-3.54 -1.15,0 -3.25,0.16 -4.77,1.15 -1.18,0.79 -1.79,1.92 -1.85,3.39 -0.03,0.42 -0.03,0.57 -0.53,0.57 -0.52,0 -0.52,-0.2 -0.52,-0.71 v -4.79 c 0,-0.43 0,-0.7 0.39,-0.7 0.25,0 0.3,0.08 0.45,0.3 0.13,0.15 0.97,1.37 0.97,1.39 1.84,-1.39 4.16,-1.69 5.86,-1.69 3.75,0 6.14,2.47 6.14,5.06 0,1.86 -1.14,2.96 -1.59,3.38 -1.16,1.15 -2.52,1.41 -4.55,1.8 -1.4,0.28 -2.84,0.54 -3.09,0.62 -1,0.2 -3.06,1.13 -3.06,3.02 0,1.64 1.84,3.21 4.56,3.21 4.45,0 5.53,-2.95 5.79,-4.76 0.08,-0.34 0.18,-0.42 0.55,-0.42 0.53,0 0.53,0.17 0.53,0.7 z"
         inkscape:connector-curvature="0"
         style="fill:#000000;stroke-width:0" /><path
         id="path1150"
         d="m 863.36,445.83 h -1.04 c -0.38,-2.89 -1.04,-5.66 -5.88,-5.66 h -3.08 c -1.21,0 -1.21,0.17 -1.21,0.95 v 12.83 c 0,0.77 0,1.05 2.38,1.05 h 1.08 v 1.09 C 854.22,456 852.38,456 850.96,456 c -1.55,0 -2.94,0.05 -4.22,0.09 V 455 h 0.75 c 2.01,0 2.01,-0.25 2.01,-1.03 V 441.2 c 0,-0.78 0,-1.03 -2.01,-1.03 h -0.75 v -1.09 h 15.79 z"
         inkscape:connector-curvature="0"
         style="fill:#000000;stroke-width:0" /><polyline
         id="polyline1152"
         points="802,434 865.24,434 865.24,435.8 802,435.8 "
         style="fill:#000000;fill-rule:nonzero;stroke-width:0" /><path
         id="path1154"
         d="m 819.07,428.52 0.02,0.07 0.02,0.06 0.01,0.06 0.02,0.06 0.02,0.05 0.01,0.06 0.02,0.04 0.01,0.05 0.02,0.04 0.02,0.03 0.02,0.04 0.02,0.03 0.02,0.03 0.02,0.02 0.03,0.03 0.03,0.02 0.03,0.02 0.03,0.01 0.04,0.02 0.04,0.01 0.04,0.01 0.05,0.01 0.05,0.01 0.02,0.01 h 0.03 0.03 0.03 l 0.03,0.01 h 0.03 0.04 0.03 0.04 0.03 l 0.04,0.01 h 0.04 0.04 0.05 0.04 0.04 0.05 0.05 2.67 c 2.78,0 3.13,-0.77 3.13,-2.31 0,-0.18 0,-0.64 -0.17,-1.85 l -0.02,-0.22 c 0,-0.25 0.14,-0.45 0.52,-0.45 0.46,0 0.53,0.22 0.57,0.67 l 0.63,4.47 c 0.05,0.24 0.05,0.3 0.05,0.39 0,0.42 -0.41,0.42 -0.83,0.42 h -17.46 c -0.65,0 -0.67,0 -0.87,-0.51 l -1.64,-4.6 c -0.03,-0.04 -0.16,-0.39 -0.16,-0.42 0,-0.14 0.1,-0.42 0.53,-0.42 0.39,0 0.43,0.08 0.64,0.67 1.13,2.97 1.85,4.16 5.24,4.16 h 2.69 c 0.2,0 0.54,0 0.79,-0.05 v -0.14 l -3.34,-13.33 c -0.19,-0.79 -0.27,-1.04 -2.89,-1.04 h -0.55 c -0.51,0 -0.55,-0.04 -0.67,-0.13 -0.13,-0.12 -0.22,-0.41 -0.22,-0.58 0,-0.14 0.09,-0.42 0.5,-0.42 0.75,0 1.55,0.08 2.3,0.08 0.76,0 1.53,0.01 2.31,0.01 0.8,0 1.61,-0.01 2.41,-0.01 0.75,0 1.54,-0.08 2.29,-0.08 0.18,0 0.66,0 0.66,0.7 0,0.43 -0.38,0.43 -0.8,0.43 h -0.54 c -0.66,0 -1.33,0 -1.97,0.12 -0.21,0.02 -0.36,0.05 -0.36,0.31 0,0.13 0,0.19 0.11,0.53 z"
         inkscape:connector-curvature="0"
         style="fill:#000000;stroke-width:0" /><path
         id="path1156"
         d="m 835.28,422.04 v 0.04 0.03 0.03 0.04 0.03 0.02 0.03 0.03 l -0.01,0.03 v 0.02 0.03 0.02 0.02 l -0.01,0.03 v 0.02 0.02 l -0.01,0.02 v 0.01 l -0.01,0.04 -0.01,0.03 -0.02,0.03 -0.01,0.03 -0.02,0.02 -0.02,0.02 -0.02,0.02 -0.03,0.02 -0.02,0.01 -0.03,0.01 -0.03,0.01 -0.04,0.01 -0.04,0.01 -0.04,0.01 h -0.02 -0.02 -0.03 l -0.02,0.01 h -0.03 -0.02 -0.03 -0.03 -0.03 -0.03 -0.03 -0.03 -0.03 -0.04 -0.03 -0.04 -0.04 -0.03 c -1.77,-1.59 -4.54,-1.59 -5.04,-1.59 h -0.42 v -1.09 h 0.42 c 0.58,0 2.19,0.06 3.64,0.68 v -12.45 c 0,-0.77 0,-1.05 -2.64,-1.05 h -1.25 v -1.09 c 1.38,0.09 3.6,0.09 5.03,0.09 1.46,0 3.68,0 5.04,-0.09 v 1.09 h -1.24 c -2.64,0 -2.64,0.28 -2.64,1.05 z"
         inkscape:connector-curvature="0"
         style="fill:#000000;stroke-width:0" /><path
         id="path1158"
         d="m 844.75,402.29 -0.01,-0.03 -0.01,-0.04 -0.01,-0.03 -0.01,-0.04 -0.01,-0.03 v -0.03 l -0.01,-0.03 -0.01,-0.02 v -0.03 l -0.01,-0.02 v -0.03 l -0.01,-0.02 v -0.02 -0.02 l -0.01,-0.02 v -0.01 -0.02 -0.02 l -0.01,-0.01 v -0.02 -0.01 -0.01 -0.01 -0.02 -0.01 -0.01 -0.01 0 -0.02 -0.02 c 0,-0.56 0.45,-0.86 0.92,-0.86 0.98,0 1.17,0.82 1.36,1.43 l 1.31,5.25 c 0.77,-1.02 1.81,-1.58 3.17,-1.58 v 0.86 c -2.22,0 -2.8,1.97 -2.8,2.22 0,0.06 0.72,2.87 0.72,2.93 1.05,3.75 3.6,4.43 4.65,4.43 1.06,0 2.38,-0.6 2.38,-2.65 0,-1.06 -0.53,-3.37 -1.32,-4.67 -1.02,-1.62 -2.52,-2.26 -3.63,-2.26 v 0 -0.86 c 3.55,0 7.19,3.29 7.19,6.9 0,2.64 -1.99,4.39 -4.58,4.39 -2.89,0 -6.11,-2.29 -6.92,-5.6 z"
         inkscape:connector-curvature="0"
         style="fill:#000000;stroke-width:0" /></g>  </g>
  <g
     style="stroke-width:0.19399165"
     transform="matrix(5.1548611,0,0,5.1548611,-420.04329,-1787.6609)"
     id="g1474">
    <g
       style="font-style:normal;font-variant:normal;font-weight:normal;font-stretch:normal;letter-spacing:normal;word-spacing:normal;text-anchor:start;fill:none;fill-opacity:1;fill-rule:evenodd;stroke:#000000;stroke-width:0.03763276;stroke-linecap:butt;stroke-linejoin:miter;stroke-miterlimit:10.43299961;stroke-dasharray:none;stroke-dashoffset:0;stroke-opacity:1"
       id="g1472"
       transform="matrix(0.05385,0,0,-0.05385,-9.42375,398.21178)"
       xml:space="preserve"
       stroke-miterlimit="10.433"
       font-style="normal"
       font-variant="normal"
       font-weight="normal"
       font-stretch="normal"
       font-size-adjust="none"
       letter-spacing="normal"
       word-spacing="normal"><path
         style="fill:#000000;stroke-width:0"
         inkscape:connector-curvature="0"
         d="m 487.66,430.62 v 0.02 0.02 0.01 l -0.01,0.02 v 0.02 0.02 l -0.01,0.02 v 0.02 l -0.01,0.02 -0.01,0.02 -0.01,0.02 -0.01,0.02 -0.01,0.02 -0.01,0.02 -0.01,0.02 -0.02,0.02 -0.02,0.02 -0.01,0.02 -0.02,0.02 -0.02,0.02 -0.02,0.01 -0.03,0.02 -0.02,0.02 -0.03,0.01 -0.02,0.01 -0.03,0.01 -0.02,0.01 h -0.01 l -0.02,0.01 h -0.02 -0.01 l -0.02,0.01 h -0.02 -0.02 -0.02 -0.02 -0.02 -0.02 c -0.25,0 -0.31,-0.04 -0.9,-0.74 l -2.39,-2.85 c -1.3,2.35 -3.89,3.59 -7.13,3.59 -6.33,0 -12.3,-5.73 -12.3,-11.76 0,-4.03 2.65,-6.33 5.18,-7.06 l 5.32,-1.41 c 1.85,-0.44 4.6,-1.19 4.6,-5.28 0,-4.49 -4.1,-9.16 -8.97,-9.16 -3.19,0 -8.72,1.1 -8.72,7.27 0,1.2 0.25,2.39 0.3,2.69 0.04,0.2 0.09,0.25 0.09,0.36 0,0.5 -0.34,0.54 -0.59,0.54 -0.25,0 -0.35,-0.04 -0.5,-0.2 -0.21,-0.2 -2.99,-11.56 -2.99,-11.7 0,-0.3 0.25,-0.5 0.55,-0.5 0.25,0 0.3,0.04 0.89,0.75 l 2.45,2.82 c 2.14,-2.89 5.52,-3.57 8.41,-3.57 6.78,0 12.66,6.62 12.66,12.79 0,3.44 -1.69,5.14 -2.44,5.83 -1.14,1.16 -1.89,1.35 -6.33,2.5 -1.09,0.3 -2.89,0.8 -3.34,0.89 -1.35,0.46 -3.03,1.89 -3.03,4.53 0,4.05 3.98,8.28 8.71,8.28 4.15,0 7.18,-2.14 7.18,-7.73 0,-1.59 -0.21,-2.48 -0.21,-2.78 0,-0.05 0,-0.5 0.61,-0.5 0.5,0 0.55,0.16 0.74,1 z"
         id="path1368" /><path
         style="fill:#000000;stroke-width:0"
         inkscape:connector-curvature="0"
         d="m 505.48,384.05 v 0.02 0.03 0.01 l -0.01,0.02 v 0.01 0.02 l -0.01,0.02 -0.01,0.01 v 0.02 l -0.01,0.02 -0.02,0.02 -0.01,0.03 -0.02,0.02 -0.02,0.03 -0.02,0.03 -0.02,0.03 -0.03,0.03 -0.03,0.04 -0.01,0.02 -0.02,0.02 -0.02,0.02 -0.01,0.02 -0.02,0.02 -0.02,0.03 -0.02,0.02 -0.03,0.02 -0.02,0.03 -0.02,0.02 -0.03,0.03 -0.02,0.03 -0.03,0.03 -0.03,0.03 -0.03,0.03 -0.02,0.03 -0.04,0.03 -0.03,0.03 -0.03,0.04 -0.03,0.03 -0.04,0.04 -0.04,0.03 -0.03,0.04 -0.04,0.04 c -6.22,6.28 -7.82,15.69 -7.82,23.31 0,8.67 1.89,17.35 8.02,23.57 0.64,0.6 0.64,0.7 0.64,0.86 0,0.34 -0.19,0.48 -0.48,0.48 -0.5,0 -4.99,-3.38 -7.93,-9.7 -2.54,-5.49 -3.14,-11.02 -3.14,-15.21 0,-3.89 0.55,-9.9 3.28,-15.54 2.99,-6.13 7.29,-9.36 7.79,-9.36 0.29,0 0.48,0.14 0.48,0.5 z"
         id="path1370" /><path
         style="fill:#000000;stroke-width:0"
         inkscape:connector-curvature="0"
         d="m 541.5,429.73 h -30.45 l -0.94,-11.21 h 1.25 c 0.69,8.03 1.44,9.67 8.95,9.67 0.91,0 2.21,0 2.71,-0.11 1.04,-0.19 1.04,-0.74 1.04,-1.89 v -26.25 c 0,-1.71 0,-2.39 -5.23,-2.39 h -2 V 396 c 2.05,0.16 7.12,0.16 9.42,0.16 2.3,0 7.42,0 9.47,-0.16 v 1.55 h -2 c -5.24,0 -5.24,0.68 -5.24,2.39 v 26.25 c 0,1 0,1.7 0.91,1.89 0.55,0.11 1.89,0.11 2.84,0.11 7.52,0 8.27,-1.64 8.96,-9.67 h 1.25 z"
         id="path1372" /><path
         style="fill:#000000;stroke-width:0"
         inkscape:connector-curvature="0"
         d="m 561.7,415.33 -6.37,1.55 c -3.1,0.74 -5.03,3.43 -5.03,6.32 0,3.49 2.68,6.53 6.58,6.53 8.31,0 9.4,-8.17 9.7,-10.42 0.04,-0.29 0.04,-0.59 0.61,-0.59 0.64,0 0.64,0.25 0.64,1.2 v 10 c 0,0.86 0,1.2 -0.55,1.2 -0.34,0 -0.4,-0.04 -0.75,-0.65 l -1.73,-2.83 c -1.5,1.44 -3.55,3.48 -7.99,3.48 -5.53,0 -9.7,-4.39 -9.7,-9.67 0,-4.12 2.64,-7.76 6.51,-9.11 0.55,-0.2 3.1,-0.79 6.58,-1.64 1.35,-0.36 2.85,-0.7 4.24,-2.54 1.04,-1.3 1.54,-2.94 1.54,-4.58 0,-3.55 -2.48,-7.13 -6.67,-7.13 -1.45,0 -5.23,0.25 -7.87,2.69 -2.89,2.69 -3.05,5.88 -3.1,7.67 -0.04,0.5 -0.43,0.5 -0.59,0.5 -0.64,0 -0.64,-0.36 -0.64,-1.25 v -9.97 c 0,-0.84 0,-1.18 0.55,-1.18 0.34,0 0.39,0.09 0.73,0.64 0,0.04 0.16,0.2 1.8,2.84 1.54,-1.69 4.73,-3.48 9.17,-3.48 5.83,0 9.81,4.87 9.81,10.36 0,4.98 -3.28,9.06 -7.47,10.06 z"
         id="path1374" /><path
         style="fill:#000000;stroke-width:0"
         inkscape:connector-curvature="0"
         d="m 601.03,408.86 h -1.25 c -0.55,-5.09 -1.25,-11.31 -10.01,-11.31 h -4.08 c -2.35,0 -2.46,0.34 -2.46,1.98 v 26.56 c 0,1.69 0,2.39 4.74,2.39 h 1.65 v 1.55 c -1.79,-0.15 -6.32,-0.15 -8.37,-0.15 -1.94,0 -5.83,0 -7.58,0.15 v -1.55 h 1.21 c 3.82,0 3.93,-0.54 3.93,-2.34 v -26.25 c 0,-1.8 -0.11,-2.34 -3.93,-2.34 h -1.21 V 396 h 25.95 z"
         id="path1376" /><path
         style="fill:#000000;stroke-width:0"
         inkscape:connector-curvature="0"
         d="m 617.5,408.45 v 0.37 l -0.01,0.39 -0.01,0.39 -0.01,0.41 -0.04,0.84 -0.06,0.88 -0.08,0.92 -0.11,0.95 -0.13,0.98 -0.17,1 -0.19,1.02 -0.23,1.03 -0.27,1.06 -0.3,1.05 -0.35,1.07 -0.4,1.07 -0.21,0.53 -0.22,0.53 -0.24,0.53 -0.25,0.53 c -2.99,6.12 -7.27,9.36 -7.77,9.36 -0.29,0 -0.5,-0.19 -0.5,-0.48 0,-0.16 0,-0.26 0.94,-1.16 4.89,-4.92 7.73,-12.84 7.73,-23.27 0,-8.51 -1.84,-17.28 -8.03,-23.56 -0.64,-0.59 -0.64,-0.7 -0.64,-0.84 0,-0.3 0.21,-0.5 0.5,-0.5 0.5,0 4.97,3.39 7.93,9.72 2.53,5.46 3.12,11 3.12,15.18 z"
         id="path1378" /><path
         style="fill:#000000;stroke-width:0"
         inkscape:connector-curvature="0"
         d="m 670.58,412.3 h 0.14 0.15 0.14 l 0.07,0.01 h 0.08 l 0.07,0.01 0.07,0.01 0.07,0.01 0.07,0.01 0.07,0.01 0.06,0.02 0.07,0.02 0.06,0.02 0.06,0.02 0.06,0.03 0.06,0.03 0.05,0.04 0.05,0.04 0.05,0.04 0.04,0.04 0.04,0.05 0.02,0.03 0.02,0.03 0.01,0.02 0.02,0.03 0.01,0.04 0.01,0.03 0.02,0.03 0.01,0.04 0.01,0.03 0.01,0.04 v 0.04 l 0.01,0.04 v 0.04 l 0.01,0.04 v 0.05 0.04 c 0,1 -0.95,1 -1.64,1 h -29.85 c -0.7,0 -1.63,0 -1.63,-1 0,-0.98 0.93,-0.98 1.68,-0.98 z"
         id="path1380" /><path
         style="fill:#000000;stroke-width:0"
         inkscape:connector-curvature="0"
         d="m 670.63,402.62 0.06,0.01 h 0.07 0.14 0.14 l 0.07,0.01 h 0.07 l 0.06,0.01 0.07,0.01 0.07,0.01 0.07,0.01 0.07,0.01 0.06,0.02 0.07,0.02 0.06,0.02 0.06,0.02 0.05,0.03 0.06,0.03 0.05,0.04 0.05,0.04 0.05,0.04 0.04,0.05 0.02,0.02 0.02,0.03 0.02,0.02 0.02,0.03 0.01,0.03 0.02,0.03 0.01,0.03 0.01,0.04 0.02,0.03 0.01,0.03 0.01,0.04 0.01,0.04 v 0.04 l 0.01,0.04 v 0.04 l 0.01,0.04 v 0.05 0.04 c 0,1 -0.95,1 -1.69,1 h -29.75 c -0.75,0 -1.68,0 -1.68,-1 0,-1 0.93,-1 1.63,-1 z"
         id="path1382" /><path
         style="fill:#000000;stroke-width:0"
         inkscape:connector-curvature="0"
         d="m 721.05,430.62 v 0.02 0.02 l -0.01,0.01 v 0.02 0.02 l -0.01,0.02 v 0.02 l -0.01,0.02 v 0.02 l -0.01,0.02 -0.01,0.02 -0.01,0.02 -0.01,0.02 -0.01,0.02 -0.02,0.02 -0.01,0.02 -0.02,0.02 -0.02,0.02 -0.01,0.02 -0.02,0.02 -0.03,0.01 -0.02,0.02 -0.02,0.02 -0.03,0.01 -0.03,0.01 -0.03,0.01 -0.01,0.01 h -0.02 l -0.01,0.01 h -0.02 -0.02 l -0.02,0.01 h -0.01 -0.02 -0.02 -0.02 -0.02 -0.02 c -0.25,0 -0.31,-0.04 -0.91,-0.74 l -2.39,-2.85 c -1.29,2.35 -3.89,3.59 -7.12,3.59 -6.33,0 -12.3,-5.73 -12.3,-11.76 0,-4.03 2.64,-6.33 5.17,-7.06 l 5.33,-1.41 c 1.84,-0.44 4.6,-1.19 4.6,-5.28 0,-4.49 -4.1,-9.16 -8.97,-9.16 -3.19,0 -8.72,1.1 -8.72,7.27 0,1.2 0.25,2.39 0.29,2.69 0.05,0.2 0.1,0.25 0.1,0.36 0,0.5 -0.35,0.54 -0.6,0.54 -0.25,0 -0.34,-0.04 -0.5,-0.2 -0.2,-0.2 -2.98,-11.56 -2.98,-11.7 0,-0.3 0.25,-0.5 0.55,-0.5 0.25,0 0.29,0.04 0.89,0.75 l 2.45,2.82 c 2.14,-2.89 5.52,-3.57 8.41,-3.57 6.78,0 12.65,6.62 12.65,12.79 0,3.44 -1.68,5.14 -2.43,5.83 -1.14,1.16 -1.9,1.35 -6.33,2.5 -1.1,0.3 -2.89,0.8 -3.35,0.89 -1.34,0.46 -3.03,1.89 -3.03,4.53 0,4.05 3.99,8.28 8.72,8.28 4.14,0 7.17,-2.14 7.17,-7.73 0,-1.59 -0.2,-2.48 -0.2,-2.78 0,-0.05 0,-0.5 0.61,-0.5 0.5,0 0.55,0.16 0.73,1 z"
         id="path1384" /><path
         style="fill:#000000;stroke-width:0"
         inkscape:connector-curvature="0"
         d="m 737.5,399.67 v 0.71 l -0.02,0.68 -0.03,0.66 -0.04,0.64 -0.06,0.62 -0.07,0.59 -0.1,0.58 -0.1,0.56 -0.13,0.55 -0.15,0.52 -0.17,0.52 -0.19,0.5 -0.21,0.49 -0.24,0.48 -0.26,0.47 -0.14,0.23 -0.15,0.23 c -1.08,1.61 -3.23,3 -6.03,3 v -0.99 c 1.89,0 3.7,-1.14 4.33,-3.17 0.56,-1.87 0.59,-4.39 0.59,-7.42 0,-2.58 0,-5.16 -0.45,-7.34 -0.7,-3.17 -3.06,-3.94 -4.47,-3.94 v 0 c -1.59,0 -3.72,0.94 -4.42,3.8 -0.49,2.04 -0.49,4.9 -0.49,7.48 0,2.55 0,5.2 0.52,7.11 0.73,2.75 2.97,3.48 4.39,3.48 v 0.99 c -8.08,0 -8.08,-9.52 -8.08,-12.03 0,-2.5 0,-11.81 8.08,-11.81 8.09,0 8.09,9.31 8.09,11.81 z"
         id="path1386" /><path
         style="fill:#000000;stroke-width:0"
         inkscape:connector-curvature="0"
         d="m 758.32,384.05 v 0.02 0.03 0.01 0.02 0.01 l -0.01,0.02 v 0.02 l -0.01,0.01 -0.01,0.02 -0.01,0.02 -0.01,0.02 -0.02,0.03 -0.01,0.02 -0.02,0.03 -0.02,0.03 -0.03,0.03 -0.02,0.03 -0.03,0.04 -0.02,0.02 -0.01,0.02 -0.02,0.02 -0.02,0.02 -0.02,0.02 -0.02,0.03 -0.02,0.02 -0.02,0.02 -0.02,0.03 -0.03,0.02 -0.02,0.03 -0.03,0.03 -0.03,0.03 -0.02,0.03 -0.03,0.03 -0.03,0.03 -0.03,0.03 -0.03,0.03 -0.04,0.04 -0.03,0.03 -0.04,0.04 -0.03,0.03 -0.04,0.04 -0.04,0.04 c -6.22,6.28 -7.81,15.69 -7.81,23.31 0,8.67 1.89,17.35 8.01,23.57 0.64,0.6 0.64,0.7 0.64,0.86 0,0.34 -0.18,0.48 -0.48,0.48 -0.5,0 -4.99,-3.38 -7.92,-9.7 -2.55,-5.49 -3.14,-11.02 -3.14,-15.21 0,-3.89 0.54,-9.9 3.28,-15.54 2.98,-6.13 7.28,-9.36 7.78,-9.36 0.3,0 0.48,0.14 0.48,0.5 z"
         id="path1388" /><path
         style="fill:#000000;stroke-width:0"
         inkscape:connector-curvature="0"
         d="m 771.52,405.67 0.11,-0.02 0.12,-0.02 0.15,-0.03 0.15,-0.04 0.17,-0.04 0.18,-0.04 0.19,-0.05 0.2,-0.06 0.2,-0.06 0.21,-0.07 0.22,-0.08 0.22,-0.08 0.22,-0.1 0.22,-0.1 0.22,-0.11 0.22,-0.12 0.22,-0.13 0.21,-0.15 0.2,-0.15 0.2,-0.16 0.19,-0.18 0.18,-0.18 0.17,-0.2 0.16,-0.22 0.14,-0.22 0.07,-0.12 0.06,-0.12 0.06,-0.13 0.05,-0.12 0.05,-0.14 0.04,-0.13 0.05,-0.14 0.03,-0.14 0.03,-0.15 0.03,-0.15 0.02,-0.15 0.01,-0.16 0.01,-0.17 v -0.16 c 0,-2.53 -1.75,-4.53 -5.62,-4.53 -4.19,0 -5.99,2.84 -6.94,7.07 -0.14,0.65 -0.19,0.85 -0.69,0.85 -0.65,0 -0.65,-0.35 -0.65,-1.25 v -6.58 c 0,-0.84 0,-1.19 0.54,-1.19 0.25,0 0.3,0.05 1.25,1 0.1,0.1 0.1,0.19 1,1.14 2.19,-2.09 4.44,-2.14 5.49,-2.14 5.72,0 8.01,3.35 8.01,6.93 0,2.64 -1.5,4.14 -2.09,4.73 -1.64,1.59 -3.59,2 -5.69,2.39 -2.78,0.55 -6.12,1.2 -6.12,4.09 0,1.74 1.29,3.79 5.58,3.79 5.48,0 5.73,-4.49 5.82,-6.04 0.07,-0.45 0.5,-0.45 0.61,-0.45 0.64,0 0.64,0.25 0.64,1.2 v 5.03 c 0,0.85 0,1.19 -0.54,1.19 -0.25,0 -0.35,0 -1,-0.59 -0.14,-0.2 -0.64,-0.64 -0.85,-0.8 -1.89,1.39 -3.93,1.39 -4.68,1.39 -6.08,0 -7.97,-3.33 -7.97,-6.12 0,-1.74 0.79,-3.14 2.14,-4.24 1.59,-1.29 3,-1.59 6.58,-2.28 z"
         id="path1390" /><path
         style="fill:#000000;stroke-width:0"
         inkscape:connector-curvature="0"
         d="m 789.65,418.02 -6.97,-0.55 v -1.55 c 3.23,0 3.69,-0.3 3.69,-2.73 v -13.41 c 0,-2.23 -0.55,-2.23 -3.89,-2.23 V 396 c 1.59,0.05 4.28,0.16 5.48,0.16 1.75,0 3.49,-0.11 5.19,-0.16 v 1.55 c -3.3,0 -3.5,0.25 -3.5,2.18 z"
         id="path1392" /><path
         style="fill:#000000;stroke-width:0"
         inkscape:connector-curvature="0"
         d="m 789.85,426.69 v 0.15 l -0.01,0.14 -0.02,0.14 -0.02,0.14 -0.04,0.13 -0.03,0.13 -0.05,0.13 -0.05,0.12 -0.05,0.12 -0.06,0.12 -0.07,0.11 -0.07,0.1 -0.07,0.11 -0.08,0.09 -0.09,0.1 -0.09,0.09 -0.09,0.08 -0.1,0.08 -0.1,0.07 -0.1,0.07 -0.11,0.07 -0.11,0.06 -0.11,0.05 -0.12,0.05 -0.12,0.04 -0.12,0.04 -0.12,0.03 -0.13,0.03 -0.12,0.02 -0.13,0.02 h -0.13 l -0.13,0.01 c -1.55,0 -2.64,-1.35 -2.64,-2.64 0,-1.35 1.09,-2.64 2.64,-2.64 1.39,0 2.64,1.04 2.64,2.64 z"
         id="path1394" /><path
         style="fill:#000000;stroke-width:0"
         inkscape:connector-curvature="0"
         d="m 800.12,413.14 v -13.36 c 0,-2.23 -0.55,-2.23 -3.89,-2.23 V 396 c 1.75,0.05 4.28,0.16 5.62,0.16 1.3,0 3.89,-0.11 5.58,-0.16 v 1.55 c -3.33,0 -3.88,0 -3.88,2.23 v 9.17 c 0,5.19 3.54,7.97 6.72,7.97 3.14,0 3.69,-2.69 3.69,-5.53 v -11.61 c 0,-2.23 -0.55,-2.23 -3.89,-2.23 V 396 c 1.75,0.05 4.3,0.16 5.64,0.16 1.3,0 3.88,-0.11 5.58,-0.16 v 1.55 c -2.59,0 -3.84,0 -3.89,1.5 v 9.51 c 0,4.28 0,5.83 -1.55,7.61 -0.69,0.86 -2.34,1.85 -5.22,1.85 -3.64,0 -5.98,-2.14 -7.37,-5.22 v 5.22 l -7.03,-0.55 v -1.55 c 3.48,0 3.89,-0.34 3.89,-2.78 z"
         id="path1396" /><path
         style="fill:#000000;stroke-width:0"
         inkscape:connector-curvature="0"
         d="m 839.95,423.34 h -1.18 c -0.1,-0.76 -0.46,-2.82 -0.91,-3.17 -0.27,-0.2 -2.95,-0.2 -3.44,-0.2 H 828 c 3.66,3.23 4.88,4.2 6.97,5.84 2.58,2.07 4.98,4.22 4.98,7.53 0,4.22 -3.68,6.8 -8.15,6.8 -4.32,0 -7.25,-3.03 -7.25,-6.23 0,-1.79 1.5,-1.96 1.86,-1.96 0.82,0 1.84,0.6 1.84,1.85 0,0.62 -0.25,1.84 -2.06,1.84 1.08,2.47 3.45,3.24 5.09,3.24 3.49,0 5.3,-2.71 5.3,-5.54 0,-3.03 -2.16,-5.43 -3.28,-6.68 l -8.39,-8.3 c -0.36,-0.31 -0.36,-0.39 -0.36,-1.36 h 14.36 z"
         id="path1398" /><path
         style="fill:#000000;stroke-width:0"
         inkscape:connector-curvature="0"
         d="m 861.16,384.05 v 0.02 0.03 0.01 0.02 0.01 l -0.01,0.02 v 0.02 l -0.01,0.01 -0.01,0.02 -0.01,0.02 -0.01,0.02 -0.02,0.03 -0.01,0.02 -0.02,0.03 -0.02,0.03 -0.03,0.03 -0.02,0.03 -0.03,0.04 -0.02,0.02 -0.01,0.02 -0.02,0.02 -0.02,0.02 -0.02,0.02 -0.02,0.03 -0.02,0.02 -0.02,0.02 -0.02,0.03 -0.03,0.02 -0.02,0.03 -0.03,0.03 -0.03,0.03 -0.02,0.03 -0.03,0.03 -0.03,0.03 -0.03,0.03 -0.03,0.03 -0.04,0.04 -0.03,0.03 -0.04,0.04 -0.03,0.03 -0.04,0.04 -0.04,0.04 c -6.22,6.28 -7.81,15.69 -7.81,23.31 0,8.67 1.89,17.35 8.01,23.57 0.64,0.6 0.64,0.7 0.64,0.86 0,0.34 -0.18,0.48 -0.48,0.48 -0.5,0 -4.98,-3.38 -7.92,-9.7 -2.55,-5.49 -3.14,-11.02 -3.14,-15.21 0,-3.89 0.54,-9.9 3.28,-15.54 2.98,-6.13 7.28,-9.36 7.78,-9.36 0.3,0 0.48,0.14 0.48,0.5 z"
         id="path1400" /><path
         style="fill:#000000;stroke-width:0"
         inkscape:connector-curvature="0"
         d="m 887.76,407.77 v 0.36 l -0.01,0.35 -0.02,0.35 -0.02,0.34 -0.07,0.65 -0.08,0.63 -0.12,0.6 -0.13,0.56 -0.16,0.54 -0.17,0.51 -0.19,0.49 -0.22,0.45 -0.23,0.44 -0.24,0.4 -0.26,0.38 -0.27,0.36 -0.29,0.33 -0.3,0.31 -0.31,0.29 -0.32,0.26 -0.33,0.24 -0.33,0.22 -0.34,0.2 -0.35,0.18 -0.35,0.16 -0.36,0.14 -0.36,0.13 -0.36,0.1 -0.36,0.09 -0.36,0.07 -0.36,0.05 -0.35,0.04 -0.36,0.02 -0.35,0.01 -0.04,-1.1 c 4.93,0 4.93,-6.53 4.93,-10.4 0,-1.85 0,-4.74 0.1,-5.58 v 0 c -4.38,-3.85 -8.22,-4.39 -10.2,-4.39 -3,0 -4.49,2.25 -4.49,5.43 0,2.44 1.3,7.82 2.89,10.36 2.33,3.64 5.03,4.58 6.77,4.58 l 0.04,1.1 c -6.81,0 -13.39,-7.13 -13.39,-14.14 0,-4.65 2.99,-8.43 8.06,-8.43 3.15,0 6.74,1.14 10.52,4.19 0.66,-2.64 2.3,-4.19 4.53,-4.19 2.64,0 4.19,2.74 4.19,3.53 0,0.36 -0.3,0.5 -0.59,0.5 -0.36,0 -0.5,-0.14 -0.66,-0.5 -0.89,-2.43 -2.69,-2.43 -2.78,-2.43 -1.55,0 -1.55,3.89 -1.55,5.07 0,1.05 0,1.16 0.5,1.76 4.69,5.87 5.74,11.65 5.74,11.7 0,0.11 -0.07,0.5 -0.61,0.5 -0.5,0 -0.5,-0.14 -0.75,-1.05 -0.89,-3.14 -2.54,-6.92 -4.88,-9.86 z"
         id="path1402" /><path
         style="fill:#000000;stroke-width:0"
         inkscape:connector-curvature="0"
         d="m 910.55,408.45 v 0.37 l -0.01,0.39 -0.01,0.39 -0.01,0.41 -0.04,0.84 -0.06,0.88 -0.08,0.92 -0.11,0.95 -0.13,0.98 -0.17,1 -0.19,1.02 -0.23,1.03 -0.27,1.06 -0.31,1.05 -0.35,1.07 -0.39,1.07 -0.21,0.53 -0.23,0.53 -0.23,0.53 -0.25,0.53 c -2.99,6.12 -7.27,9.36 -7.77,9.36 -0.3,0 -0.5,-0.19 -0.5,-0.48 0,-0.16 0,-0.26 0.94,-1.16 4.89,-4.92 7.73,-12.84 7.73,-23.27 0,-8.51 -1.84,-17.28 -8.03,-23.56 -0.64,-0.59 -0.64,-0.7 -0.64,-0.84 0,-0.3 0.2,-0.5 0.5,-0.5 0.5,0 4.97,3.39 7.92,9.72 2.53,5.46 3.13,11 3.13,15.18 z"
         id="path1404" /><path
         style="fill:#000000;stroke-width:0"
         inkscape:connector-curvature="0"
         d="m 924.78,407.52 h 0.15 0.15 0.17 0.18 l 0.19,0.01 h 0.2 l 0.2,0.01 0.22,0.01 0.22,0.01 0.24,0.01 0.24,0.01 0.24,0.02 0.25,0.02 0.26,0.02 0.52,0.05 0.54,0.07 0.54,0.08 0.54,0.09 0.54,0.11 0.54,0.12 0.26,0.07 0.26,0.08 0.25,0.08 0.25,0.08 0.24,0.09 0.24,0.1 c 3.49,1.5 3.74,4.43 3.74,5.12 0,2.2 -1.9,4.24 -5.33,4.24 v -1.1 c 2.34,0 3.68,-1.44 3.68,-3.14 0,-5.17 -7.97,-5.17 -10.01,-5.17 h -2.05 c 1.96,7.56 7.08,8.31 8.38,8.31 v 1.1 c -5.54,0 -13.05,-4.83 -13.05,-13.55 0,-5.08 2.94,-9.02 7.81,-9.02 7.13,0 11.32,5.28 11.32,5.88 0,0.29 -0.3,0.65 -0.6,0.65 -0.25,0 -0.34,-0.1 -0.65,-0.5 -3.94,-4.93 -9.37,-4.93 -9.96,-4.93 -3.89,0 -4.34,4.18 -4.34,5.78 0,0.59 0.05,2.14 0.8,5.19 z"
         id="path1406" /><path
         style="fill:#000000;stroke-width:0"
         inkscape:connector-curvature="0"
         d="m 964.56,433.52 h 0.06 0.05 0.11 0.12 0.06 l 0.06,0.01 h 0.06 l 0.05,0.01 0.06,0.01 0.06,0.01 0.06,0.01 0.05,0.02 0.06,0.01 0.05,0.02 0.05,0.02 0.05,0.03 0.05,0.02 0.04,0.03 0.04,0.03 0.04,0.04 0.04,0.04 0.02,0.02 0.01,0.02 0.02,0.02 0.02,0.03 0.01,0.02 0.01,0.03 0.02,0.02 0.01,0.03 0.01,0.03 0.01,0.03 v 0.03 l 0.01,0.03 0.01,0.04 v 0.03 l 0.01,0.04 v 0.03 0.04 0.04 c 0,0.86 -0.79,0.86 -1.39,0.86 H 943.8 c -0.57,0 -1.39,0 -1.39,-0.83 0,-0.87 0.79,-0.87 1.39,-0.87 z"
         id="path1408" /><path
         style="fill:#000000;stroke-width:0"
         inkscape:connector-curvature="0"
         d="m 997.29,455.89 h -19.06 l -0.58,-5.92 h 1.05 c 0.42,4.53 1.37,4.83 5.4,4.83 0.54,0 1.43,0 1.6,-0.03 0.7,-0.05 0.75,-0.15 0.75,-0.93 v -12.62 c 0,-0.8 0,-1.05 -2.66,-1.05 h -1.25 v -1.09 c 1.25,0.09 3.86,0.09 5.24,0.09 1.36,0 3.98,0 5.22,-0.09 v 1.09 h -1.24 c -2.67,0 -2.67,0.25 -2.67,1.05 v 12.62 c 0,0.74 0.05,0.86 0.7,0.93 0.22,0.03 1.06,0.03 1.61,0.03 4.05,0 4.99,-0.28 5.41,-4.83 h 1.04 z"
         id="path1410" /><path
         style="fill:#000000;stroke-width:0"
         inkscape:connector-curvature="0"
         d="m 1015.1,455.94 v 0.04 0.04 0.03 0.04 0.03 0.04 0.03 0.04 0.03 0.03 0.03 0.03 0.02 0.03 l -0.1,0.02 v 0.03 0.02 0.02 0.02 0.02 0.02 0.01 l -0.1,0.02 v 0.01 0.01 0.01 0.01 h -0.1 v 0 0.01 0 0 0.01 0 h -0.1 v 0 0 0 c -0.1,0 -0.3,0 -0.5,-0.33 l -1,-1.43 c -1.2,1.06 -2.7,1.76 -5,1.76 -3.5,0 -6.1,-2.19 -6.1,-4.7 0,-1.41 0.8,-2.47 1.6,-3.13 1.2,-1.06 2.5,-1.31 3.6,-1.53 0.5,-0.11 3.8,-0.75 3.9,-0.78 1.7,-0.39 3.2,-1.64 3.2,-3.34 0,-1.77 -1.7,-3.54 -4.6,-3.54 -1.1,0 -3.2,0.16 -4.8,1.15 -1.1,0.79 -1.8,1.92 -1.8,3.39 0,0.42 0,0.57 -0.5,0.57 -0.6,0 -0.6,-0.2 -0.6,-0.71 v -4.79 c 0,-0.43 0,-0.7 0.4,-0.7 0.3,0 0.3,0.08 0.5,0.3 0.1,0.15 1,1.37 1,1.39 1.8,-1.39 4.1,-1.69 5.8,-1.69 3.8,0 6.2,2.47 6.2,5.06 0,1.86 -1.2,2.96 -1.6,3.38 -1.2,1.15 -2.6,1.41 -4.6,1.8 -1.4,0.28 -2.8,0.54 -3.1,0.62 -1,0.2 -3,1.13 -3,3.02 0,1.64 1.8,3.21 4.5,3.21 4.5,0 5.6,-2.95 5.8,-4.76 0.1,-0.34 0.2,-0.42 0.6,-0.42 0.5,0 0.5,0.17 0.5,0.7 z"
         id="path1412" /><path
         style="fill:#000000;stroke-width:0"
         inkscape:connector-curvature="0"
         d="m 1037.1,445.83 h -1 c -0.4,-2.89 -1,-5.66 -5.9,-5.66 h -3.1 c -1.2,0 -1.2,0.17 -1.2,0.95 v 12.83 c 0,0.77 0,1.05 2.4,1.05 h 1.1 v 1.09 c -1.4,-0.09 -3.3,-0.09 -4.7,-0.09 -1.5,0 -2.9,0.05 -4.2,0.09 V 455 h 0.7 c 2.1,0 2.1,-0.25 2.1,-1.03 V 441.2 c 0,-0.78 0,-1.03 -2.1,-1.03 h -0.7 v -1.09 h 15.8 z"
         id="path1414" /><polyline
         style="fill:#000000;fill-rule:nonzero;stroke-width:0"
         points="976,434 1039.2,434 1039.2,435.8 976,435.8 "
         id="polyline1416" /><path
         style="fill:#000000;stroke-width:0"
         inkscape:connector-curvature="0"
         d="m 992.83,428.52 0.02,0.07 0.01,0.06 0.02,0.06 0.02,0.06 0.01,0.05 0.02,0.06 0.02,0.04 0.01,0.05 0.02,0.04 0.02,0.03 0.02,0.04 0.02,0.03 0.02,0.03 0.02,0.02 0.03,0.03 0.03,0.02 0.03,0.02 0.03,0.01 0.04,0.02 0.04,0.01 0.04,0.01 0.05,0.01 0.05,0.01 0.02,0.01 h 0.03 0.03 0.03 l 0.03,0.01 h 0.03 0.03 0.04 0.03 0.04 l 0.04,0.01 h 0.04 0.04 0.04 0.05 0.04 0.05 0.05 2.67 c 2.78,0 3.13,-0.77 3.13,-2.31 0,-0.18 0,-0.64 -0.18,-1.85 l -0.01,-0.22 c 0,-0.25 0.14,-0.45 0.51,-0.45 0.5,0 0.5,0.22 0.6,0.67 l 0.6,4.47 c 0.1,0.24 0.1,0.3 0.1,0.39 0,0.42 -0.5,0.42 -0.9,0.42 h -17.43 c -0.65,0 -0.67,0 -0.87,-0.51 l -1.64,-4.6 c -0.04,-0.04 -0.16,-0.39 -0.16,-0.42 0,-0.14 0.09,-0.42 0.53,-0.42 0.39,0 0.42,0.08 0.64,0.67 1.13,2.97 1.85,4.16 5.24,4.16 h 2.68 c 0.21,0 0.55,0 0.8,-0.05 v -0.14 l -3.34,-13.33 c -0.19,-0.79 -0.27,-1.04 -2.89,-1.04 h -0.55 c -0.52,0 -0.55,-0.04 -0.67,-0.13 -0.13,-0.12 -0.22,-0.41 -0.22,-0.58 0,-0.14 0.09,-0.42 0.5,-0.42 0.75,0 1.55,0.08 2.3,0.08 0.76,0 1.53,0.01 2.31,0.01 0.79,0 1.61,-0.01 2.4,-0.01 0.75,0 1.55,-0.08 2.3,-0.08 0.17,0 0.66,0 0.66,0.7 0,0.43 -0.38,0.43 -0.8,0.43 h -0.55 c -0.65,0 -1.32,0 -1.96,0.12 -0.21,0.02 -0.36,0.05 -0.36,0.31 0,0.13 0,0.19 0.1,0.53 z"
         id="path1418" /><path
         style="fill:#000000;stroke-width:0"
         inkscape:connector-curvature="0"
         d="m 1009,422.04 v 0.04 0.03 0.03 0.04 0.03 0.02 0.03 0.03 0.03 0.02 0.03 0.02 0.02 0.03 0.02 0.02 0.02 0.01 0.02 0.02 0.03 0.03 0.03 l -0.1,0.02 v 0.02 0.02 0.02 l -0.1,0.01 v 0.01 0.01 0.01 l -0.1,0.01 v 0.01 h -0.1 v 0 0 0.01 0 h -0.1 v 0 0 h -0.1 v 0 0 0 h -0.1 v 0 0 h -0.1 v 0 h -0.1 c -1.7,-1.59 -4.5,-1.59 -5,-1.59 h -0.4 v -1.09 h 0.4 c 0.6,0 2.2,0.06 3.7,0.68 v -12.45 c 0,-0.77 0,-1.05 -2.7,-1.05 h -1.2 v -1.09 c 1.3,0.09 3.6,0.09 5,0.09 1.4,0 3.7,0 5,-0.09 v 1.09 h -1.2 c -2.7,0 -2.7,0.28 -2.7,1.05 z"
         id="path1420" /><path
         style="fill:#000000;stroke-width:0"
         inkscape:connector-curvature="0"
         d="m 1018.5,402.29 v -0.03 -0.04 -0.03 -0.04 -0.03 -0.03 -0.03 l -0.1,-0.02 v -0.03 -0.02 -0.03 -0.02 -0.02 -0.02 -0.02 -0.01 -0.02 -0.02 -0.01 -0.02 -0.01 -0.01 -0.01 -0.02 -0.01 -0.01 -0.01 0 -0.02 -0.02 c 0,-0.56 0.4,-0.86 0.9,-0.86 1,0 1.2,0.82 1.4,1.43 l 1.3,5.25 c 0.8,-1.02 1.8,-1.58 3.2,-1.58 v 0.86 c -2.2,0 -2.8,1.97 -2.8,2.22 0,0.06 0.7,2.87 0.7,2.93 1,3.75 3.6,4.43 4.6,4.43 1.1,0 2.4,-0.6 2.4,-2.65 0,-1.06 -0.5,-3.37 -1.3,-4.67 -1,-1.62 -2.5,-2.26 -3.6,-2.26 v 0 -0.86 c 3.5,0 7.1,3.29 7.1,6.9 0,2.64 -1.9,4.39 -4.5,4.39 -2.9,0 -6.1,-2.29 -7,-5.6 z"
         id="path1422" /><path
         style="fill:#000000;stroke-width:0"
         inkscape:connector-curvature="0"
         d="m 1078.9,407.45 h 13.9 c 0.7,0 1.6,0 1.6,1 0,1 -0.9,1 -1.6,1 h -13.9 v 13.96 c 0,0.68 0,1.64 -1,1.64 -1,0 -1,-0.96 -1,-1.64 V 409.45 H 1063 c -0.8,0 -1.7,0 -1.7,-1 0,-1 0.9,-1 1.7,-1 h 13.9 v -13.93 c 0,-0.71 0,-1.66 1,-1.66 1,0 1,0.95 1,1.66 z"
         id="path1424" /><path
         style="fill:#000000;stroke-width:0"
         inkscape:connector-curvature="0"
         d="m 1114.1,406.86 v 0.38 l 0.1,0.36 v 0.36 0.35 0.34 0.34 l 0.1,0.32 v 0.32 l 0.1,0.31 v 0.3 l 0.1,0.29 v 0.29 l 0.2,0.55 0.1,0.51 0.2,0.49 0.2,0.46 0.2,0.43 0.2,0.4 0.2,0.38 0.2,0.35 0.3,0.32 0.2,0.31 0.3,0.27 0.2,0.26 0.3,0.23 0.3,0.21 0.3,0.19 0.2,0.16 0.3,0.15 0.3,0.13 0.3,0.12 0.3,0.09 0.3,0.08 0.2,0.06 0.3,0.05 0.3,0.03 0.2,0.02 0.3,0.01 c 0.4,0 3.6,-0.05 5.3,-1.85 -2,-0.15 -2.3,-1.64 -2.3,-2.29 0,-1.3 0.9,-2.3 2.3,-2.3 1.2,0 2.2,0.86 2.2,2.34 0,3.4 -3.7,5.33 -7.6,5.33 -6.2,0 -10.8,-5.37 -10.8,-11.54 0,-6.38 4.9,-11.32 10.7,-11.32 6.7,0 8.3,5.99 8.3,6.47 0,0.5 -0.5,0.5 -0.7,0.5 -0.4,0 -0.5,-0.19 -0.6,-0.5 -1.5,-4.62 -4.7,-5.22 -6.5,-5.22 -2.7,0 -7.1,2.14 -7.1,10.16 z"
         id="path1426" /><path
         style="fill:#000000;stroke-width:0"
         inkscape:connector-curvature="0"
         d="m 1153.9,406.66 -0.1,0.59 v 0.59 l -0.1,0.58 -0.1,0.57 -0.1,0.56 -0.1,0.55 -0.2,0.54 -0.2,0.53 -0.2,0.51 -0.3,0.5 -0.2,0.49 -0.3,0.48 -0.3,0.45 -0.4,0.44 -0.3,0.43 -0.4,0.41 -0.4,0.38 -0.4,0.37 -0.4,0.35 -0.4,0.33 -0.5,0.3 -0.4,0.28 -0.5,0.26 -0.5,0.24 -0.5,0.21 -0.5,0.18 -0.5,0.16 -0.5,0.13 -0.6,0.11 -0.5,0.07 -0.6,0.05 -0.6,0.01 v -1.09 c 2.2,0 4.3,-1.1 5.6,-3.24 1.3,-2.14 1.3,-5.03 1.3,-6.92 0,-1.79 0,-4.48 -1.1,-6.67 -1.1,-2.25 -3.3,-3.69 -5.8,-3.69 v 0 c -2.1,0 -4.3,1.05 -5.6,3.33 -1.3,2.2 -1.3,5.24 -1.3,7.03 0,1.94 0,4.63 1.2,6.83 1.4,2.28 3.7,3.33 5.7,3.33 v 1.09 c -6.2,0 -11,-5.42 -11,-11.65 0,-6.43 5.2,-11.21 11,-11.21 6,0 11.1,4.88 11.1,11.21 z"
         id="path1428" /><path
         style="fill:#000000;stroke-width:0"
         inkscape:connector-curvature="0"
         d="m 1165.7,405.67 0.1,-0.02 0.1,-0.02 0.2,-0.03 0.1,-0.04 0.2,-0.04 0.2,-0.04 0.2,-0.05 0.2,-0.06 0.2,-0.06 0.2,-0.07 0.2,-0.08 0.2,-0.08 0.3,-0.1 0.2,-0.1 0.2,-0.11 0.2,-0.12 0.2,-0.13 0.2,-0.15 0.2,-0.15 0.2,-0.16 0.2,-0.18 0.2,-0.18 0.2,-0.2 0.1,-0.22 0.2,-0.22 0.1,-0.12 v -0.12 l 0.1,-0.13 v -0.12 l 0.1,-0.14 v -0.13 l 0.1,-0.14 v -0.14 -0.15 l 0.1,-0.15 v -0.15 -0.16 -0.17 -0.16 c 0,-2.53 -1.7,-4.53 -5.6,-4.53 -4.2,0 -6,2.84 -7,7.07 -0.1,0.65 -0.1,0.85 -0.6,0.85 -0.7,0 -0.7,-0.35 -0.7,-1.25 v -6.58 c 0,-0.84 0,-1.19 0.5,-1.19 0.3,0 0.3,0.05 1.3,1 0.1,0.1 0.1,0.19 1,1.14 2.2,-2.09 4.4,-2.14 5.5,-2.14 5.7,0 8,3.35 8,6.93 0,2.64 -1.5,4.14 -2.1,4.73 -1.6,1.59 -3.6,2 -5.7,2.39 -2.8,0.55 -6.1,1.2 -6.1,4.09 0,1.74 1.3,3.79 5.6,3.79 5.4,0 5.7,-4.49 5.8,-6.04 0,-0.45 0.5,-0.45 0.6,-0.45 0.6,0 0.6,0.25 0.6,1.2 v 5.03 c 0,0.85 0,1.19 -0.5,1.19 -0.3,0 -0.3,0 -1,-0.59 -0.2,-0.2 -0.7,-0.64 -0.8,-0.8 -1.9,1.39 -4,1.39 -4.7,1.39 -6.1,0 -8,-3.33 -8,-6.12 0,-1.74 0.8,-3.14 2.1,-4.24 1.6,-1.29 3,-1.59 6.6,-2.28 z"
         id="path1430" /><path
         style="fill:#000000;stroke-width:0"
         inkscape:connector-curvature="0"
         d="m 1191.5,384.05 v 0.02 0.03 0.01 0.02 0.01 0.02 0.02 0.01 0.02 0.02 0.02 l -0.1,0.03 v 0.02 0.03 0.03 0.03 l -0.1,0.03 v 0.04 0.02 0.02 0.02 l -0.1,0.02 v 0.02 0.03 0.02 0.02 l -0.1,0.03 v 0.02 0.03 0.03 l -0.1,0.03 v 0.03 0.03 0.03 l -0.1,0.03 v 0.03 0.04 l -0.1,0.03 v 0.04 l -0.1,0.03 v 0.04 0.04 c -6.3,6.28 -7.8,15.69 -7.8,23.31 0,8.67 1.9,17.35 8,23.57 0.6,0.6 0.6,0.7 0.6,0.86 0,0.34 -0.2,0.48 -0.5,0.48 -0.5,0 -4.9,-3.38 -7.9,-9.7 -2.5,-5.49 -3.1,-11.02 -3.1,-15.21 0,-3.89 0.5,-9.9 3.2,-15.54 3,-6.13 7.3,-9.36 7.8,-9.36 0.3,0 0.5,0.14 0.5,0.5 z"
         id="path1432" /><path
         style="fill:#000000;stroke-width:0"
         inkscape:connector-curvature="0"
         d="m 1217,420.91 v 0.32 0.33 0.36 0.37 l -0.1,0.39 v 0.39 0.41 l -0.1,0.41 -0.1,0.42 v 0.43 l -0.1,0.42 -0.1,0.43 -0.1,0.42 -0.2,0.42 -0.1,0.42 -0.2,0.4 -0.1,0.4 -0.2,0.38 -0.2,0.37 -0.2,0.36 -0.3,0.34 -0.2,0.32 -0.3,0.3 -0.3,0.27 -0.3,0.25 -0.2,0.12 -0.1,0.1 -0.2,0.11 -0.2,0.09 -0.2,0.08 -0.1,0.08 -0.2,0.07 -0.2,0.06 -0.2,0.05 -0.3,0.05 -0.2,0.03 -0.2,0.03 -0.2,0.01 h -0.3 v -1.09 c 2.4,0 2.7,-3.19 2.7,-6.03 0,-2.44 -0.4,-4.98 -1.6,-9.92 h -10.4 c 0.9,3.2 1.9,7.19 3.9,10.72 1.3,2.43 3.1,5.23 5.4,5.23 v 1.09 c -6.9,0 -14.6,-14.04 -14.6,-25.45 0,-4.69 1.5,-10.22 6,-10.22 v 1.1 c -1.6,0 -2.7,1.45 -2.7,6.07 0,2.1 0.3,4.99 1.6,9.86 h 10.4 c -0.6,-2.28 -1.6,-6.51 -3.5,-10.1 -1.7,-3.4 -3.6,-5.83 -5.8,-5.83 v -1.1 c 7,0 14.6,14.3 14.6,25.46 z"
         id="path1434" /><path
         style="fill:#000000;stroke-width:0"
         inkscape:connector-curvature="0"
         d="m 1233.6,408.45 v 0.37 0.39 0.39 0.41 l -0.1,0.84 v 0.88 l -0.1,0.92 -0.1,0.95 -0.2,0.98 -0.1,1 -0.2,1.02 -0.3,1.03 -0.2,1.06 -0.3,1.05 -0.4,1.07 -0.4,1.07 -0.2,0.53 -0.2,0.53 -0.3,0.53 -0.2,0.53 c -3,6.12 -7.3,9.36 -7.8,9.36 -0.3,0 -0.5,-0.19 -0.5,-0.48 0,-0.16 0,-0.26 1,-1.16 4.9,-4.92 7.7,-12.84 7.7,-23.27 0,-8.51 -1.8,-17.28 -8,-23.56 -0.7,-0.59 -0.7,-0.7 -0.7,-0.84 0,-0.3 0.2,-0.5 0.5,-0.5 0.5,0 5,3.39 7.9,9.72 2.6,5.46 3.2,11 3.2,15.18 z"
         id="path1436" /><path
         style="fill:#000000;stroke-width:0"
         inkscape:connector-curvature="0"
         d="m 1252.6,406.86 v 0.38 0.36 0.36 l 0.1,0.35 v 0.34 0.34 0.32 l 0.1,0.32 v 0.31 l 0.1,0.3 v 0.29 l 0.1,0.29 0.1,0.55 0.2,0.51 0.2,0.49 0.1,0.46 0.2,0.43 0.2,0.4 0.3,0.38 0.2,0.35 0.2,0.32 0.3,0.31 0.2,0.27 0.3,0.26 0.3,0.23 0.3,0.21 0.2,0.19 0.3,0.16 0.3,0.15 0.3,0.13 0.3,0.12 0.2,0.09 0.3,0.08 0.3,0.06 0.3,0.05 0.2,0.03 0.3,0.02 0.2,0.01 c 0.5,0 3.6,-0.05 5.4,-1.85 -2.1,-0.15 -2.4,-1.64 -2.4,-2.29 0,-1.3 0.9,-2.3 2.3,-2.3 1.3,0 2.3,0.86 2.3,2.34 0,3.4 -3.8,5.33 -7.6,5.33 -6.2,0 -10.8,-5.37 -10.8,-11.54 0,-6.38 4.9,-11.32 10.7,-11.32 6.7,0 8.3,5.99 8.3,6.47 0,0.5 -0.5,0.5 -0.7,0.5 -0.4,0 -0.5,-0.19 -0.6,-0.5 -1.5,-4.62 -4.7,-5.22 -6.6,-5.22 -2.6,0 -7,2.14 -7,10.16 z"
         id="path1438" /><path
         style="fill:#000000;stroke-width:0"
         inkscape:connector-curvature="0"
         d="m 1292.3,406.66 v 0.59 0.59 l -0.1,0.58 -0.1,0.57 -0.1,0.56 -0.2,0.55 -0.1,0.54 -0.2,0.53 -0.3,0.51 -0.2,0.5 -0.3,0.49 -0.3,0.48 -0.3,0.45 -0.3,0.44 -0.3,0.43 -0.4,0.41 -0.4,0.38 -0.4,0.37 -0.4,0.35 -0.4,0.33 -0.5,0.3 -0.5,0.28 -0.4,0.26 -0.5,0.24 -0.5,0.21 -0.5,0.18 -0.5,0.16 -0.6,0.13 -0.5,0.11 -0.6,0.07 -0.5,0.05 -0.6,0.01 v -1.09 c 2.2,0 4.3,-1.1 5.6,-3.24 1.3,-2.14 1.3,-5.03 1.3,-6.92 0,-1.79 0,-4.48 -1.1,-6.67 -1.1,-2.25 -3.3,-3.69 -5.8,-3.69 v 0 c -2.1,0 -4.3,1.05 -5.7,3.33 -1.2,2.2 -1.2,5.24 -1.2,7.03 0,1.94 0,4.63 1.2,6.83 1.3,2.28 3.7,3.33 5.7,3.33 v 1.09 c -6.2,0 -11.1,-5.42 -11.1,-11.65 0,-6.43 5.2,-11.21 11.1,-11.21 6,0 11,4.88 11,11.21 z"
         id="path1440" /><path
         style="fill:#000000;stroke-width:0"
         inkscape:connector-curvature="0"
         d="m 1304.2,405.67 0.1,-0.02 0.1,-0.02 0.2,-0.03 0.1,-0.04 0.2,-0.04 0.2,-0.04 0.2,-0.05 0.2,-0.06 0.2,-0.06 0.2,-0.07 0.2,-0.08 0.2,-0.08 0.2,-0.1 0.2,-0.1 0.3,-0.11 0.2,-0.12 0.2,-0.13 0.2,-0.15 0.2,-0.15 0.2,-0.16 0.2,-0.18 0.2,-0.18 0.2,-0.2 0.1,-0.22 0.2,-0.22 v -0.12 l 0.1,-0.12 v -0.13 l 0.1,-0.12 v -0.14 l 0.1,-0.13 v -0.14 l 0.1,-0.14 v -0.15 -0.15 -0.15 l 0.1,-0.16 v -0.17 -0.16 c 0,-2.53 -1.8,-4.53 -5.7,-4.53 -4.1,0 -5.9,2.84 -6.9,7.07 -0.1,0.65 -0.2,0.85 -0.7,0.85 -0.6,0 -0.6,-0.35 -0.6,-1.25 v -6.58 c 0,-0.84 0,-1.19 0.5,-1.19 0.3,0 0.3,0.05 1.3,1 0,0.1 0,0.19 1,1.14 2.1,-2.09 4.4,-2.14 5.4,-2.14 5.8,0 8.1,3.35 8.1,6.93 0,2.64 -1.5,4.14 -2.1,4.73 -1.7,1.59 -3.6,2 -5.7,2.39 -2.8,0.55 -6.2,1.2 -6.2,4.09 0,1.74 1.4,3.79 5.6,3.79 5.5,0 5.8,-4.49 5.9,-6.04 0,-0.45 0.5,-0.45 0.6,-0.45 0.6,0 0.6,0.25 0.6,1.2 v 5.03 c 0,0.85 0,1.19 -0.5,1.19 -0.3,0 -0.4,0 -1,-0.59 -0.2,-0.2 -0.7,-0.64 -0.9,-0.8 -1.9,1.39 -3.9,1.39 -4.7,1.39 -6.1,0 -7.9,-3.33 -7.9,-6.12 0,-1.74 0.8,-3.14 2.1,-4.24 1.6,-1.29 3,-1.59 6.6,-2.28 z"
         id="path1442" /><path
         style="fill:#000000;stroke-width:0"
         inkscape:connector-curvature="0"
         d="m 1331.2,420.46 h -1.1 c -0.2,-0.76 -0.5,-2.82 -1,-3.17 -0.2,-0.2 -2.9,-0.2 -3.4,-0.2 h -6.4 c 3.6,3.23 4.9,4.2 6.9,5.84 2.6,2.07 5,4.22 5,7.53 0,4.22 -3.6,6.8 -8.1,6.8 -4.3,0 -7.3,-3.03 -7.3,-6.23 0,-1.78 1.5,-1.96 1.9,-1.96 0.8,0 1.8,0.6 1.8,1.85 0,0.62 -0.2,1.84 -2,1.84 1.1,2.47 3.4,3.24 5.1,3.24 3.5,0 5.3,-2.71 5.3,-5.54 0,-3.03 -2.2,-5.43 -3.3,-6.68 l -8.4,-8.3 c -0.4,-0.31 -0.4,-0.39 -0.4,-1.36 h 14.4 z"
         id="path1444" /><path
         style="fill:#000000;stroke-width:0"
         inkscape:connector-curvature="0"
         d="m 1352.4,384.05 v 0.02 0.03 0.01 0.02 0.01 0.02 0.02 0.01 0.02 0.02 0.02 0.03 0.02 l -0.1,0.03 v 0.03 0.03 0.03 l -0.1,0.04 v 0.02 0.02 0.02 0.02 0.02 l -0.1,0.03 v 0.02 0.02 0.03 l -0.1,0.02 v 0.03 0.03 0.03 l -0.1,0.03 v 0.03 0.03 l -0.1,0.03 v 0.03 0.04 l -0.1,0.03 v 0.04 0.03 l -0.1,0.04 v 0.04 c -6.2,6.28 -7.8,15.69 -7.8,23.31 0,8.67 1.9,17.35 8,23.57 0.6,0.6 0.6,0.7 0.6,0.86 0,0.34 -0.1,0.48 -0.4,0.48 -0.5,0 -5,-3.38 -8,-9.7 -2.5,-5.49 -3.1,-11.02 -3.1,-15.21 0,-3.89 0.5,-9.9 3.3,-15.54 3,-6.13 7.3,-9.36 7.8,-9.36 0.3,0 0.4,0.14 0.4,0.5 z"
         id="path1446" /><path
         style="fill:#000000;stroke-width:0"
         inkscape:connector-curvature="0"
         d="m 1379,407.77 v 0.36 0.35 0.35 0.34 l -0.1,0.65 -0.1,0.63 -0.1,0.6 -0.1,0.56 -0.2,0.54 -0.1,0.51 -0.2,0.49 -0.2,0.45 -0.3,0.44 -0.2,0.4 -0.3,0.38 -0.3,0.36 -0.2,0.33 -0.3,0.31 -0.4,0.29 -0.3,0.26 -0.3,0.24 -0.3,0.22 -0.4,0.2 -0.3,0.18 -0.4,0.16 -0.3,0.14 -0.4,0.13 -0.4,0.1 -0.3,0.09 -0.4,0.07 -0.3,0.05 -0.4,0.04 -0.3,0.02 -0.4,0.01 v -1.1 c 4.9,0 4.9,-6.53 4.9,-10.4 0,-1.85 0,-4.74 0.1,-5.58 v 0 c -4.4,-3.85 -8.2,-4.39 -10.2,-4.39 -3,0 -4.5,2.25 -4.5,5.43 0,2.44 1.3,7.82 2.9,10.36 2.3,3.64 5,4.58 6.8,4.58 v 1.1 c -6.8,0 -13.4,-7.13 -13.4,-14.14 0,-4.65 3,-8.43 8.1,-8.43 3.1,0 6.7,1.14 10.5,4.19 0.7,-2.64 2.3,-4.19 4.5,-4.19 2.7,0 4.2,2.74 4.2,3.53 0,0.36 -0.3,0.5 -0.6,0.5 -0.3,0 -0.5,-0.14 -0.6,-0.5 -0.9,-2.43 -2.7,-2.43 -2.8,-2.43 -1.6,0 -1.6,3.89 -1.6,5.07 0,1.05 0,1.16 0.5,1.76 4.7,5.87 5.8,11.65 5.8,11.7 0,0.11 -0.1,0.5 -0.6,0.5 -0.5,0 -0.5,-0.14 -0.8,-1.05 -0.9,-3.14 -2.5,-6.92 -4.9,-9.86 z"
         id="path1448" /><path
         style="fill:#000000;stroke-width:0"
         inkscape:connector-curvature="0"
         d="m 1401.8,408.45 v 0.37 0.39 0.39 0.41 0.84 l -0.1,0.88 -0.1,0.92 -0.1,0.95 -0.1,0.98 -0.2,1 -0.2,1.02 -0.2,1.03 -0.3,1.06 -0.3,1.05 -0.3,1.07 -0.4,1.07 -0.2,0.53 -0.3,0.53 -0.2,0.53 -0.3,0.53 c -2.9,6.12 -7.2,9.36 -7.7,9.36 -0.3,0 -0.5,-0.19 -0.5,-0.48 0,-0.16 0,-0.26 0.9,-1.16 4.9,-4.92 7.7,-12.84 7.7,-23.27 0,-8.51 -1.8,-17.28 -8,-23.56 -0.6,-0.59 -0.6,-0.7 -0.6,-0.84 0,-0.3 0.2,-0.5 0.5,-0.5 0.5,0 5,3.39 7.9,9.72 2.5,5.46 3.1,11 3.1,15.18 z"
         id="path1450" /><path
         style="fill:#000000;stroke-width:0"
         inkscape:connector-curvature="0"
         d="m 1416.1,407.52 h 0.1 0.2 0.1 0.2 l 0.2,0.01 h 0.2 l 0.2,0.01 0.2,0.01 0.2,0.01 0.3,0.01 0.2,0.01 0.3,0.02 0.2,0.02 0.3,0.02 0.5,0.05 0.5,0.07 0.6,0.08 0.5,0.09 0.6,0.11 0.5,0.12 0.2,0.07 0.3,0.08 0.3,0.08 0.2,0.08 0.3,0.09 0.2,0.1 c 3.5,1.5 3.7,4.43 3.7,5.12 0,2.2 -1.9,4.24 -5.3,4.24 v -1.1 c 2.3,0 3.7,-1.44 3.7,-3.14 0,-5.17 -8,-5.17 -10,-5.17 h -2.1 c 2,7.56 7.1,8.31 8.4,8.31 v 1.1 c -5.5,0 -13,-4.83 -13,-13.55 0,-5.08 2.9,-9.02 7.8,-9.02 7.1,0 11.3,5.28 11.3,5.88 0,0.29 -0.3,0.65 -0.6,0.65 -0.3,0 -0.4,-0.1 -0.7,-0.5 -3.9,-4.93 -9.3,-4.93 -9.9,-4.93 -3.9,0 -4.4,4.18 -4.4,5.78 0,0.59 0.1,2.14 0.8,5.19 z"
         id="path1452" /><path
         style="fill:#000000;stroke-width:0"
         inkscape:connector-curvature="0"
         d="m 1455.8,433.52 h 0.1 v 0 h 0.2 0.1 v 0 l 0.1,0.01 h 0.1 v 0.01 l 0.1,0.01 v 0.01 l 0.1,0.01 v 0.02 l 0.1,0.01 v 0.02 l 0.1,0.02 v 0.03 l 0.1,0.02 v 0.03 l 0.1,0.03 v 0.04 l 0.1,0.04 v 0.02 0.02 0.02 0.03 0.02 l 0.1,0.03 v 0.02 0.03 0.03 0.03 0.03 0.03 0.04 0.03 0.04 0.03 0.04 0.04 c 0,0.86 -0.8,0.86 -1.4,0.86 h -20.7 c -0.6,0 -1.4,0 -1.4,-0.83 0,-0.87 0.8,-0.87 1.4,-0.87 z"
         id="path1454" /><path
         style="fill:#000000;stroke-width:0"
         inkscape:connector-curvature="0"
         d="m 1488.4,455.89 h -19 l -0.6,-5.92 h 1.1 c 0.4,4.53 1.3,4.83 5.4,4.83 0.5,0 1.4,0 1.6,-0.03 0.7,-0.05 0.7,-0.15 0.7,-0.93 v -12.62 c 0,-0.8 0,-1.05 -2.7,-1.05 h -1.2 v -1.09 c 1.2,0.09 3.9,0.09 5.2,0.09 1.4,0 4,0 5.3,-0.09 v 1.09 h -1.3 c -2.7,0 -2.7,0.25 -2.7,1.05 v 12.62 c 0,0.74 0.1,0.86 0.7,0.93 0.3,0.03 1.1,0.03 1.7,0.03 4,0 5,-0.28 5.4,-4.83 h 1 z"
         id="path1456" /><path
         style="fill:#000000;stroke-width:0"
         inkscape:connector-curvature="0"
         d="m 1506.2,455.94 v 0.04 0.04 0.03 0.04 0.03 0.04 0.03 0.04 0.03 0.03 0.03 0.03 0.02 0.03 0.02 0.03 0.02 0.02 0.02 0.02 l -0.1,0.02 v 0.01 0.02 0.01 0.01 l -0.1,0.01 v 0.01 0 0 0.01 0 0 l -0.1,0.01 v 0 0 0 0 h -0.1 c -0.1,0 -0.2,0 -0.5,-0.33 l -0.9,-1.43 c -1.2,1.06 -2.8,1.76 -5,1.76 -3.6,0 -6.1,-2.19 -6.1,-4.7 0,-1.41 0.7,-2.47 1.5,-3.13 1.3,-1.06 2.5,-1.31 3.7,-1.53 0.5,-0.11 3.7,-0.75 3.9,-0.78 1.7,-0.39 3.2,-1.64 3.2,-3.34 0,-1.77 -1.7,-3.54 -4.6,-3.54 -1.2,0 -3.3,0.16 -4.8,1.15 -1.2,0.79 -1.8,1.92 -1.9,3.39 0,0.42 0,0.57 -0.5,0.57 -0.5,0 -0.5,-0.2 -0.5,-0.71 v -4.79 c 0,-0.43 0,-0.7 0.4,-0.7 0.2,0 0.3,0.08 0.4,0.3 0.2,0.15 1,1.37 1,1.39 1.9,-1.39 4.2,-1.69 5.9,-1.69 3.7,0 6.1,2.47 6.1,5.06 0,1.86 -1.1,2.96 -1.6,3.38 -1.1,1.15 -2.5,1.41 -4.5,1.8 -1.4,0.28 -2.9,0.54 -3.1,0.62 -1,0.2 -3.1,1.13 -3.1,3.02 0,1.64 1.9,3.21 4.6,3.21 4.4,0 5.5,-2.95 5.8,-4.76 0,-0.34 0.1,-0.42 0.5,-0.42 0.5,0 0.5,0.17 0.5,0.7 z"
         id="path1458" /><path
         style="fill:#000000;stroke-width:0"
         inkscape:connector-curvature="0"
         d="m 1528.3,445.83 h -1.1 c -0.3,-2.89 -1,-5.66 -5.8,-5.66 h -3.1 c -1.2,0 -1.2,0.17 -1.2,0.95 v 12.83 c 0,0.77 0,1.05 2.4,1.05 h 1 v 1.09 c -1.4,-0.09 -3.2,-0.09 -4.6,-0.09 -1.6,0 -3,0.05 -4.2,0.09 V 455 h 0.7 c 2,0 2,-0.25 2,-1.03 V 441.2 c 0,-0.78 0,-1.03 -2,-1.03 h -0.7 v -1.09 h 15.8 z"
         id="path1460" /><polyline
         style="fill:#000000;fill-rule:nonzero;stroke-width:0"
         points="1467,434 1530.2,434 1530.2,435.8 1467,435.8 "
         id="polyline1462" /><path
         style="fill:#000000;stroke-width:0"
         inkscape:connector-curvature="0"
         d="m 1484,428.52 v 0.07 0.06 0.06 l 0.1,0.06 v 0.05 0.06 0.04 0.05 0.04 l 0.1,0.03 v 0.04 0.03 0.03 0.02 l 0.1,0.03 v 0.02 0.02 l 0.1,0.01 v 0.02 0.01 l 0.1,0.01 v 0.01 l 0.1,0.01 v 0.01 0 h 0.1 v 0 0.01 h 0.1 v 0 0 h 0.1 v 0 0.01 h 0.1 v 0 h 0.1 v 0 0 h 0.1 v 0 h 2.7 c 2.8,0 3.1,-0.77 3.1,-2.31 0,-0.18 0,-0.64 -0.1,-1.85 l -0.1,-0.22 c 0,-0.25 0.2,-0.45 0.6,-0.45 0.4,0 0.5,0.22 0.5,0.67 l 0.7,4.47 c 0,0.24 0,0.3 0,0.39 0,0.42 -0.4,0.42 -0.8,0.42 h -17.5 c -0.6,0 -0.6,0 -0.8,-0.51 l -1.7,-4.6 c 0,-0.04 -0.1,-0.39 -0.1,-0.42 0,-0.14 0.1,-0.42 0.5,-0.42 0.4,0 0.4,0.08 0.6,0.67 1.2,2.97 1.9,4.16 5.3,4.16 h 2.7 c 0.2,0 0.5,0 0.8,-0.05 v -0.14 l -3.4,-13.33 c -0.2,-0.79 -0.3,-1.04 -2.9,-1.04 h -0.5 c -0.6,0 -0.6,-0.04 -0.7,-0.13 -0.1,-0.12 -0.2,-0.41 -0.2,-0.58 0,-0.14 0.1,-0.42 0.5,-0.42 0.7,0 1.5,0.08 2.3,0.08 0.7,0 1.5,0.01 2.3,0.01 0.8,0 1.6,-0.01 2.4,-0.01 0.7,0 1.5,-0.08 2.3,-0.08 0.2,0 0.6,0 0.6,0.7 0,0.43 -0.3,0.43 -0.7,0.43 h -0.6 c -0.7,0 -1.3,0 -2,0.12 -0.2,0.02 -0.3,0.05 -0.3,0.31 0,0.13 0,0.19 0.1,0.53 z"
         id="path1464" /><path
         style="fill:#000000;stroke-width:0"
         inkscape:connector-curvature="0"
         d="m 1504.9,411.01 h -1 c -0.1,-0.48 -0.3,-2.01 -0.7,-2.26 -0.2,-0.16 -2.3,-0.16 -2.7,-0.16 h -4.9 c 1.7,1.22 3.5,2.61 5,3.61 2.3,1.55 4.3,3 4.3,5.64 0,3.19 -3,4.95 -6.5,4.95 -3.4,0 -5.8,-1.95 -5.8,-4.39 0,-1.29 1,-1.51 1.4,-1.51 0.7,0 1.5,0.45 1.5,1.47 0,0.89 -0.7,1.39 -1.4,1.46 0.6,1.13 2.1,1.88 3.8,1.88 2.4,0 4.4,-1.45 4.4,-3.89 0,-2.1 -1.5,-3.69 -3.4,-5.31 l -6.1,-5.16 c -0.2,-0.22 -0.2,-0.22 -0.2,-0.39 v -0.75 h 11.5 z"
         id="path1466" /><path
         style="fill:#000000;stroke-width:0"
         inkscape:connector-curvature="0"
         d="m 1509.7,402.29 v -0.03 -0.04 l -0.1,-0.03 v -0.04 -0.03 -0.03 -0.03 -0.02 -0.03 -0.02 -0.03 -0.02 -0.02 -0.02 -0.02 -0.01 -0.02 -0.02 -0.01 -0.02 -0.01 -0.01 -0.01 -0.02 -0.01 -0.01 -0.01 0 -0.02 -0.02 c 0,-0.56 0.4,-0.86 0.9,-0.86 1,0 1.2,0.82 1.3,1.43 l 1.4,5.25 c 0.7,-1.02 1.8,-1.58 3.1,-1.58 v 0.86 c -2.2,0 -2.8,1.97 -2.8,2.22 0,0.06 0.7,2.87 0.7,2.93 1.1,3.75 3.6,4.43 4.7,4.43 1,0 2.4,-0.6 2.4,-2.65 0,-1.06 -0.5,-3.37 -1.4,-4.67 -1,-1.62 -2.5,-2.26 -3.6,-2.26 v 0 -0.86 c 3.6,0 7.2,3.29 7.2,6.9 0,2.64 -2,4.39 -4.6,4.39 -2.9,0 -6.1,-2.29 -6.9,-5.6 z"
         id="path1468" /><path
         style="fill:#000000;stroke-width:0"
         inkscape:connector-curvature="0"
         d="m 1553.2,408.45 -0.1,0.37 v 0.39 0.39 0.41 0.84 l -0.1,0.88 -0.1,0.92 -0.1,0.95 -0.1,0.98 -0.2,1 -0.2,1.02 -0.2,1.03 -0.3,1.06 -0.3,1.05 -0.3,1.07 -0.4,1.07 -0.2,0.53 -0.2,0.53 -0.3,0.53 -0.2,0.53 c -3,6.12 -7.3,9.36 -7.8,9.36 -0.3,0 -0.5,-0.19 -0.5,-0.48 0,-0.16 0,-0.26 0.9,-1.16 4.9,-4.92 7.8,-12.84 7.8,-23.27 0,-8.51 -1.9,-17.28 -8.1,-23.56 -0.6,-0.59 -0.6,-0.7 -0.6,-0.84 0,-0.3 0.2,-0.5 0.5,-0.5 0.5,0 5,3.39 7.9,9.72 2.6,5.46 3.2,11 3.2,15.18 z"
         id="path1470" /></g>  </g>
  <g
     id="g1696"
     transform="matrix(5.1548611,0,0,5.1548611,-191.06539,-1671.2817)"
     style="stroke-width:0.19399165">
    <g
       word-spacing="normal"
       letter-spacing="normal"
       font-size-adjust="none"
       font-stretch="normal"
       font-weight="normal"
       font-variant="normal"
       font-style="normal"
       stroke-miterlimit="10.433"
       xml:space="preserve"
       transform="matrix(0.05385,0,0,-0.05385,-9.42375,398.21178)"
       id="g1694"
       style="font-style:normal;font-variant:normal;font-weight:normal;font-stretch:normal;letter-spacing:normal;word-spacing:normal;text-anchor:start;fill:none;fill-opacity:1;fill-rule:evenodd;stroke:#000000;stroke-width:0.03763276;stroke-linecap:butt;stroke-linejoin:miter;stroke-miterlimit:10.43299961;stroke-dasharray:none;stroke-dashoffset:0;stroke-opacity:1"><path
         id="path1638"
         d="m 487.66,430.62 v 0.02 0.02 0.01 l -0.01,0.02 v 0.02 0.02 l -0.01,0.02 v 0.02 l -0.01,0.02 -0.01,0.02 -0.01,0.02 -0.01,0.02 -0.01,0.02 -0.01,0.02 -0.01,0.02 -0.02,0.02 -0.02,0.02 -0.01,0.02 -0.02,0.02 -0.02,0.02 -0.02,0.01 -0.03,0.02 -0.02,0.02 -0.03,0.01 -0.02,0.01 -0.03,0.01 -0.02,0.01 h -0.01 l -0.02,0.01 h -0.02 -0.01 l -0.02,0.01 h -0.02 -0.02 -0.02 -0.02 -0.02 -0.02 c -0.25,0 -0.31,-0.04 -0.9,-0.74 l -2.39,-2.85 c -1.3,2.35 -3.89,3.59 -7.13,3.59 -6.33,0 -12.3,-5.73 -12.3,-11.76 0,-4.03 2.65,-6.33 5.18,-7.06 l 5.32,-1.41 c 1.85,-0.44 4.6,-1.19 4.6,-5.28 0,-4.49 -4.1,-9.16 -8.97,-9.16 -3.19,0 -8.72,1.1 -8.72,7.27 0,1.2 0.25,2.39 0.3,2.69 0.04,0.2 0.09,0.25 0.09,0.36 0,0.5 -0.34,0.54 -0.59,0.54 -0.25,0 -0.35,-0.04 -0.5,-0.2 -0.21,-0.2 -2.99,-11.56 -2.99,-11.7 0,-0.3 0.25,-0.5 0.55,-0.5 0.25,0 0.3,0.04 0.89,0.75 l 2.45,2.82 c 2.14,-2.89 5.52,-3.57 8.41,-3.57 6.78,0 12.66,6.62 12.66,12.79 0,3.44 -1.69,5.14 -2.44,5.83 -1.14,1.16 -1.89,1.35 -6.33,2.5 -1.09,0.3 -2.89,0.8 -3.34,0.89 -1.35,0.46 -3.03,1.89 -3.03,4.53 0,4.05 3.98,8.28 8.71,8.28 4.15,0 7.18,-2.14 7.18,-7.73 0,-1.59 -0.21,-2.48 -0.21,-2.78 0,-0.05 0,-0.5 0.61,-0.5 0.5,0 0.55,0.16 0.74,1 z"
         inkscape:connector-curvature="0"
         style="fill:#000000;stroke-width:0" /><path
         id="path1640"
         d="m 505.48,384.05 v 0.02 0.03 0.01 l -0.01,0.02 v 0.01 0.02 l -0.01,0.02 -0.01,0.01 v 0.02 l -0.01,0.02 -0.02,0.02 -0.01,0.03 -0.02,0.02 -0.02,0.03 -0.02,0.03 -0.02,0.03 -0.03,0.03 -0.03,0.04 -0.01,0.02 -0.02,0.02 -0.02,0.02 -0.01,0.02 -0.02,0.02 -0.02,0.03 -0.02,0.02 -0.03,0.02 -0.02,0.03 -0.02,0.02 -0.03,0.03 -0.02,0.03 -0.03,0.03 -0.03,0.03 -0.03,0.03 -0.02,0.03 -0.04,0.03 -0.03,0.03 -0.03,0.04 -0.03,0.03 -0.04,0.04 -0.04,0.03 -0.03,0.04 -0.04,0.04 c -6.22,6.28 -7.82,15.69 -7.82,23.31 0,8.67 1.89,17.35 8.02,23.57 0.64,0.6 0.64,0.7 0.64,0.86 0,0.34 -0.19,0.48 -0.48,0.48 -0.5,0 -4.99,-3.38 -7.93,-9.7 -2.54,-5.49 -3.14,-11.02 -3.14,-15.21 0,-3.89 0.55,-9.9 3.28,-15.54 2.99,-6.13 7.29,-9.36 7.79,-9.36 0.29,0 0.48,0.14 0.48,0.5 z"
         inkscape:connector-curvature="0"
         style="fill:#000000;stroke-width:0" /><path
         id="path1642"
         d="m 541.5,429.73 h -30.45 l -0.94,-11.21 h 1.25 c 0.69,8.03 1.44,9.67 8.95,9.67 0.91,0 2.21,0 2.71,-0.11 1.04,-0.19 1.04,-0.74 1.04,-1.89 v -26.25 c 0,-1.71 0,-2.39 -5.23,-2.39 h -2 V 396 c 2.05,0.16 7.12,0.16 9.42,0.16 2.3,0 7.42,0 9.47,-0.16 v 1.55 h -2 c -5.24,0 -5.24,0.68 -5.24,2.39 v 26.25 c 0,1 0,1.7 0.91,1.89 0.55,0.11 1.89,0.11 2.84,0.11 7.52,0 8.27,-1.64 8.96,-9.67 h 1.25 z"
         inkscape:connector-curvature="0"
         style="fill:#000000;stroke-width:0" /><path
         id="path1644"
         d="m 561.7,415.33 -6.37,1.55 c -3.1,0.74 -5.03,3.43 -5.03,6.32 0,3.49 2.68,6.53 6.58,6.53 8.31,0 9.4,-8.17 9.7,-10.42 0.04,-0.29 0.04,-0.59 0.61,-0.59 0.64,0 0.64,0.25 0.64,1.2 v 10 c 0,0.86 0,1.2 -0.55,1.2 -0.34,0 -0.4,-0.04 -0.75,-0.65 l -1.73,-2.83 c -1.5,1.44 -3.55,3.48 -7.99,3.48 -5.53,0 -9.7,-4.39 -9.7,-9.67 0,-4.12 2.64,-7.76 6.51,-9.11 0.55,-0.2 3.1,-0.79 6.58,-1.64 1.35,-0.36 2.85,-0.7 4.24,-2.54 1.04,-1.3 1.54,-2.94 1.54,-4.58 0,-3.55 -2.48,-7.13 -6.67,-7.13 -1.45,0 -5.23,0.25 -7.87,2.69 -2.89,2.69 -3.05,5.88 -3.1,7.67 -0.04,0.5 -0.43,0.5 -0.59,0.5 -0.64,0 -0.64,-0.36 -0.64,-1.25 v -9.97 c 0,-0.84 0,-1.18 0.55,-1.18 0.34,0 0.39,0.09 0.73,0.64 0,0.04 0.16,0.2 1.8,2.84 1.54,-1.69 4.73,-3.48 9.17,-3.48 5.83,0 9.81,4.87 9.81,10.36 0,4.98 -3.28,9.06 -7.47,10.06 z"
         inkscape:connector-curvature="0"
         style="fill:#000000;stroke-width:0" /><path
         id="path1646"
         d="m 601.03,408.86 h -1.25 c -0.55,-5.09 -1.25,-11.31 -10.01,-11.31 h -4.08 c -2.35,0 -2.46,0.34 -2.46,1.98 v 26.56 c 0,1.69 0,2.39 4.74,2.39 h 1.65 v 1.55 c -1.79,-0.15 -6.32,-0.15 -8.37,-0.15 -1.94,0 -5.83,0 -7.58,0.15 v -1.55 h 1.21 c 3.82,0 3.93,-0.54 3.93,-2.34 v -26.25 c 0,-1.8 -0.11,-2.34 -3.93,-2.34 h -1.21 V 396 h 25.95 z"
         inkscape:connector-curvature="0"
         style="fill:#000000;stroke-width:0" /><path
         id="path1648"
         d="m 617.5,408.45 v 0.37 l -0.01,0.39 -0.01,0.39 -0.01,0.41 -0.04,0.84 -0.06,0.88 -0.08,0.92 -0.11,0.95 -0.13,0.98 -0.17,1 -0.19,1.02 -0.23,1.03 -0.27,1.06 -0.3,1.05 -0.35,1.07 -0.4,1.07 -0.21,0.53 -0.22,0.53 -0.24,0.53 -0.25,0.53 c -2.99,6.12 -7.27,9.36 -7.77,9.36 -0.29,0 -0.5,-0.19 -0.5,-0.48 0,-0.16 0,-0.26 0.94,-1.16 4.89,-4.92 7.73,-12.84 7.73,-23.27 0,-8.51 -1.84,-17.28 -8.03,-23.56 -0.64,-0.59 -0.64,-0.7 -0.64,-0.84 0,-0.3 0.21,-0.5 0.5,-0.5 0.5,0 4.97,3.39 7.93,9.72 2.53,5.46 3.12,11 3.12,15.18 z"
         inkscape:connector-curvature="0"
         style="fill:#000000;stroke-width:0" /><path
         id="path1650"
         d="m 670.58,412.3 h 0.14 0.15 0.14 l 0.07,0.01 h 0.08 l 0.07,0.01 0.07,0.01 0.07,0.01 0.07,0.01 0.07,0.01 0.06,0.02 0.07,0.02 0.06,0.02 0.06,0.02 0.06,0.03 0.06,0.03 0.05,0.04 0.05,0.04 0.05,0.04 0.04,0.04 0.04,0.05 0.02,0.03 0.02,0.03 0.01,0.02 0.02,0.03 0.01,0.04 0.01,0.03 0.02,0.03 0.01,0.04 0.01,0.03 0.01,0.04 v 0.04 l 0.01,0.04 v 0.04 l 0.01,0.04 v 0.05 0.04 c 0,1 -0.95,1 -1.64,1 h -29.85 c -0.7,0 -1.63,0 -1.63,-1 0,-0.98 0.93,-0.98 1.68,-0.98 z"
         inkscape:connector-curvature="0"
         style="fill:#000000;stroke-width:0" /><path
         id="path1652"
         d="m 670.63,402.62 0.06,0.01 h 0.07 0.14 0.14 l 0.07,0.01 h 0.07 l 0.06,0.01 0.07,0.01 0.07,0.01 0.07,0.01 0.07,0.01 0.06,0.02 0.07,0.02 0.06,0.02 0.06,0.02 0.05,0.03 0.06,0.03 0.05,0.04 0.05,0.04 0.05,0.04 0.04,0.05 0.02,0.02 0.02,0.03 0.02,0.02 0.02,0.03 0.01,0.03 0.02,0.03 0.01,0.03 0.01,0.04 0.02,0.03 0.01,0.03 0.01,0.04 0.01,0.04 v 0.04 l 0.01,0.04 v 0.04 l 0.01,0.04 v 0.05 0.04 c 0,1 -0.95,1 -1.69,1 h -29.75 c -0.75,0 -1.68,0 -1.68,-1 0,-1 0.93,-1 1.63,-1 z"
         inkscape:connector-curvature="0"
         style="fill:#000000;stroke-width:0" /><path
         id="path1654"
         d="m 695.23,399.84 5.29,5.13 c 7.76,6.87 10.76,9.56 10.76,14.55 0,5.68 -4.48,9.67 -10.56,9.67 -5.64,0 -9.33,-4.6 -9.33,-9.03 0,-2.78 2.5,-2.78 2.64,-2.78 0.86,0 2.59,0.59 2.59,2.64 0,1.29 -0.89,2.59 -2.64,2.59 -0.39,0 -0.5,0 -0.64,-0.05 1.14,3.24 3.83,5.08 6.72,5.08 4.53,0 6.69,-4.05 6.69,-8.12 0,-3.99 -2.5,-7.93 -5.23,-11.02 l -9.57,-10.66 c -0.56,-0.54 -0.56,-0.64 -0.56,-1.84 h 18.49 l 1.4,8.67 h -1.25 c -0.25,-1.5 -0.59,-3.69 -1.09,-4.44 -0.36,-0.39 -3.64,-0.39 -4.74,-0.39 z"
         inkscape:connector-curvature="0"
         style="fill:#000000;stroke-width:0" /><path
         id="path1656"
         d="m 746,430.62 v 0.02 0.02 0.01 0.02 0.02 l -0.01,0.02 v 0.02 l -0.01,0.02 -0.01,0.02 v 0.02 l -0.01,0.02 -0.01,0.02 -0.01,0.02 -0.02,0.02 -0.01,0.02 -0.02,0.02 -0.01,0.02 -0.02,0.02 -0.02,0.02 -0.02,0.02 -0.02,0.01 -0.02,0.02 -0.03,0.02 -0.02,0.01 -0.03,0.01 -0.03,0.01 -0.02,0.01 h -0.01 l -0.02,0.01 h -0.01 -0.02 l -0.02,0.01 h -0.02 -0.01 -0.02 -0.02 -0.02 -0.02 c -0.25,0 -0.31,-0.04 -0.91,-0.74 l -2.39,-2.85 c -1.3,2.35 -3.89,3.59 -7.13,3.59 -6.32,0 -12.29,-5.73 -12.29,-11.76 0,-4.03 2.64,-6.33 5.17,-7.06 l 5.33,-1.41 c 1.84,-0.44 4.59,-1.19 4.59,-5.28 0,-4.49 -4.09,-9.16 -8.97,-9.16 -3.18,0 -8.71,1.1 -8.71,7.27 0,1.2 0.25,2.39 0.29,2.69 0.05,0.2 0.09,0.25 0.09,0.36 0,0.5 -0.34,0.54 -0.59,0.54 -0.25,0 -0.34,-0.04 -0.5,-0.2 -0.2,-0.2 -2.98,-11.56 -2.98,-11.7 0,-0.3 0.25,-0.5 0.54,-0.5 0.25,0 0.3,0.04 0.9,0.75 l 2.45,2.82 c 2.14,-2.89 5.51,-3.57 8.4,-3.57 6.78,0 12.66,6.62 12.66,12.79 0,3.44 -1.69,5.14 -2.44,5.83 -1.14,1.16 -1.89,1.35 -6.32,2.5 -1.1,0.3 -2.9,0.8 -3.35,0.89 -1.34,0.46 -3.03,1.89 -3.03,4.53 0,4.05 3.98,8.28 8.72,8.28 4.14,0 7.17,-2.14 7.17,-7.73 0,-1.59 -0.2,-2.48 -0.2,-2.78 0,-0.05 0,-0.5 0.61,-0.5 0.5,0 0.54,0.16 0.73,1 z"
         inkscape:connector-curvature="0"
         style="fill:#000000;stroke-width:0" /><path
         id="path1658"
         d="m 762.47,399.67 -0.01,0.71 -0.02,0.68 -0.03,0.66 -0.04,0.64 -0.06,0.62 -0.07,0.59 -0.09,0.58 -0.11,0.56 -0.13,0.55 -0.15,0.52 -0.17,0.52 -0.19,0.5 -0.21,0.49 -0.24,0.48 -0.26,0.47 -0.14,0.23 -0.15,0.23 c -1.08,1.61 -3.23,3 -6.03,3 v -0.99 c 1.89,0 3.7,-1.14 4.33,-3.17 0.56,-1.87 0.59,-4.39 0.59,-7.42 0,-2.58 0,-5.16 -0.45,-7.34 -0.7,-3.17 -3.06,-3.94 -4.47,-3.94 v 0 c -1.59,0 -3.72,0.94 -4.42,3.8 -0.48,2.04 -0.48,4.9 -0.48,7.48 0,2.55 0,5.2 0.51,7.11 0.74,2.75 2.97,3.48 4.39,3.48 v 0.99 c -8.08,0 -8.08,-9.52 -8.08,-12.03 0,-2.5 0,-11.81 8.08,-11.81 8.1,0 8.1,9.31 8.1,11.81 z"
         inkscape:connector-curvature="0"
         style="fill:#000000;stroke-width:0" /><path
         id="path1660"
         d="m 785.44,405.67 0.11,-0.02 0.13,-0.02 0.14,-0.03 0.15,-0.04 0.17,-0.04 0.18,-0.04 0.19,-0.05 0.2,-0.06 0.2,-0.06 0.22,-0.07 0.21,-0.08 0.22,-0.08 0.22,-0.1 0.22,-0.1 0.22,-0.11 0.22,-0.12 0.22,-0.13 0.21,-0.15 0.2,-0.15 0.2,-0.16 0.19,-0.18 0.18,-0.18 0.17,-0.2 0.16,-0.22 0.14,-0.22 0.07,-0.12 0.06,-0.12 0.06,-0.13 0.05,-0.12 0.05,-0.14 0.05,-0.13 0.04,-0.14 0.03,-0.14 0.03,-0.15 0.03,-0.15 0.02,-0.15 0.01,-0.16 0.01,-0.17 v -0.16 c 0,-2.53 -1.74,-4.53 -5.62,-4.53 -4.19,0 -5.98,2.84 -6.94,7.07 -0.14,0.65 -0.18,0.85 -0.68,0.85 -0.66,0 -0.66,-0.35 -0.66,-1.25 v -6.58 c 0,-0.84 0,-1.19 0.55,-1.19 0.25,0 0.29,0.05 1.25,1 0.09,0.1 0.09,0.19 1,1.14 2.18,-2.09 4.43,-2.14 5.48,-2.14 5.72,0 8.02,3.35 8.02,6.93 0,2.64 -1.5,4.14 -2.1,4.73 -1.64,1.59 -3.59,2 -5.69,2.39 -2.78,0.55 -6.12,1.2 -6.12,4.09 0,1.74 1.3,3.79 5.58,3.79 5.48,0 5.73,-4.49 5.83,-6.04 0.06,-0.45 0.5,-0.45 0.6,-0.45 0.65,0 0.65,0.25 0.65,1.2 v 5.03 c 0,0.85 0,1.19 -0.55,1.19 -0.25,0 -0.34,0 -1,-0.59 -0.14,-0.2 -0.64,-0.64 -0.84,-0.8 -1.9,1.39 -3.94,1.39 -4.69,1.39 -6.08,0 -7.97,-3.33 -7.97,-6.12 0,-1.74 0.8,-3.14 2.14,-4.24 1.59,-1.29 3,-1.59 6.58,-2.28 z"
         inkscape:connector-curvature="0"
         style="fill:#000000;stroke-width:0" /><path
         id="path1662"
         d="m 803.57,418.02 -6.97,-0.55 v -1.55 c 3.24,0 3.69,-0.3 3.69,-2.73 v -13.41 c 0,-2.23 -0.55,-2.23 -3.89,-2.23 V 396 c 1.59,0.05 4.28,0.16 5.48,0.16 1.75,0 3.49,-0.11 5.19,-0.16 v 1.55 c -3.3,0 -3.5,0.25 -3.5,2.18 z"
         inkscape:connector-curvature="0"
         style="fill:#000000;stroke-width:0" /><path
         id="path1664"
         d="m 803.77,426.69 v 0.15 l -0.01,0.14 -0.02,0.14 -0.02,0.14 -0.03,0.13 -0.04,0.13 -0.04,0.13 -0.05,0.12 -0.06,0.12 -0.06,0.12 -0.07,0.11 -0.07,0.1 -0.07,0.11 -0.08,0.09 -0.09,0.1 -0.09,0.09 -0.09,0.08 -0.1,0.08 -0.1,0.07 -0.1,0.07 -0.11,0.07 -0.11,0.06 -0.11,0.05 -0.12,0.05 -0.12,0.04 -0.12,0.04 -0.12,0.03 -0.12,0.03 -0.13,0.02 -0.13,0.02 h -0.13 l -0.13,0.01 c -1.54,0 -2.64,-1.35 -2.64,-2.64 0,-1.35 1.1,-2.64 2.64,-2.64 1.39,0 2.64,1.04 2.64,2.64 z"
         inkscape:connector-curvature="0"
         style="fill:#000000;stroke-width:0" /><path
         id="path1666"
         d="m 814.04,413.14 v -13.36 c 0,-2.23 -0.55,-2.23 -3.89,-2.23 V 396 c 1.75,0.05 4.28,0.16 5.62,0.16 1.3,0 3.89,-0.11 5.58,-0.16 v 1.55 c -3.33,0 -3.87,0 -3.87,2.23 v 9.17 c 0,5.19 3.53,7.97 6.72,7.97 3.14,0 3.68,-2.69 3.68,-5.53 v -11.61 c 0,-2.23 -0.54,-2.23 -3.89,-2.23 V 396 c 1.75,0.05 4.3,0.16 5.64,0.16 1.3,0 3.88,-0.11 5.58,-0.16 v 1.55 c -2.59,0 -3.84,0 -3.89,1.5 v 9.51 c 0,4.28 0,5.83 -1.55,7.61 -0.68,0.86 -2.34,1.85 -5.22,1.85 -3.64,0 -5.98,-2.14 -7.37,-5.22 v 5.22 l -7.03,-0.55 v -1.55 c 3.48,0 3.89,-0.34 3.89,-2.78 z"
         inkscape:connector-curvature="0"
         style="fill:#000000;stroke-width:0" /><path
         id="path1668"
         d="m 853.75,423.34 h -1.18 c -0.1,-0.76 -0.46,-2.82 -0.91,-3.17 -0.26,-0.2 -2.95,-0.2 -3.44,-0.2 h -6.42 c 3.66,3.23 4.88,4.2 6.97,5.84 2.58,2.07 4.98,4.22 4.98,7.53 0,4.22 -3.68,6.8 -8.15,6.8 -4.32,0 -7.25,-3.03 -7.25,-6.23 0,-1.79 1.5,-1.96 1.86,-1.96 0.82,0 1.84,0.6 1.84,1.85 0,0.62 -0.25,1.84 -2.06,1.84 1.08,2.47 3.45,3.24 5.09,3.24 3.49,0 5.3,-2.71 5.3,-5.54 0,-3.03 -2.16,-5.43 -3.28,-6.68 l -8.39,-8.3 c -0.36,-0.31 -0.36,-0.39 -0.36,-1.36 h 14.36 z"
         inkscape:connector-curvature="0"
         style="fill:#000000;stroke-width:0" /><path
         id="path1670"
         d="m 874.97,384.05 -0.01,0.02 v 0.03 0.01 0.02 0.01 l -0.01,0.02 v 0.02 l -0.01,0.01 -0.01,0.02 -0.01,0.02 -0.01,0.02 -0.02,0.03 -0.01,0.02 -0.02,0.03 -0.02,0.03 -0.03,0.03 -0.02,0.03 -0.03,0.04 -0.02,0.02 -0.01,0.02 -0.02,0.02 -0.02,0.02 -0.02,0.02 -0.02,0.03 -0.02,0.02 -0.02,0.02 -0.02,0.03 -0.03,0.02 -0.02,0.03 -0.03,0.03 -0.02,0.03 -0.03,0.03 -0.03,0.03 -0.03,0.03 -0.03,0.03 -0.03,0.03 -0.04,0.04 -0.03,0.03 -0.04,0.04 -0.03,0.03 -0.04,0.04 -0.04,0.04 c -6.22,6.28 -7.81,15.69 -7.81,23.31 0,8.67 1.89,17.35 8.01,23.57 0.65,0.6 0.65,0.7 0.65,0.86 0,0.34 -0.19,0.48 -0.49,0.48 -0.5,0 -4.98,-3.38 -7.92,-9.7 -2.55,-5.49 -3.14,-11.02 -3.14,-15.21 0,-3.89 0.55,-9.9 3.28,-15.54 2.98,-6.13 7.28,-9.36 7.78,-9.36 0.3,0 0.49,0.14 0.49,0.5 z"
         inkscape:connector-curvature="0"
         style="fill:#000000;stroke-width:0" /><path
         id="path1672"
         d="m 901.56,407.77 v 0.36 l -0.01,0.35 -0.02,0.35 -0.02,0.34 -0.06,0.65 -0.09,0.63 -0.12,0.6 -0.13,0.56 -0.15,0.54 -0.18,0.51 -0.19,0.49 -0.22,0.45 -0.22,0.44 -0.25,0.4 -0.26,0.38 -0.27,0.36 -0.29,0.33 -0.3,0.31 -0.31,0.29 -0.32,0.26 -0.32,0.24 -0.34,0.22 -0.34,0.2 -0.35,0.18 -0.35,0.16 -0.36,0.14 -0.36,0.13 -0.36,0.1 -0.36,0.09 -0.36,0.07 -0.36,0.05 -0.35,0.04 -0.36,0.02 -0.35,0.01 -0.04,-1.1 c 4.93,0 4.93,-6.53 4.93,-10.4 0,-1.85 0,-4.74 0.1,-5.58 v 0 c -4.38,-3.85 -8.22,-4.39 -10.2,-4.39 -3,0 -4.49,2.25 -4.49,5.43 0,2.44 1.3,7.82 2.89,10.36 2.33,3.64 5.03,4.58 6.77,4.58 l 0.04,1.1 c -6.81,0 -13.39,-7.13 -13.39,-14.14 0,-4.65 2.99,-8.43 8.07,-8.43 3.14,0 6.73,1.14 10.51,4.19 0.66,-2.64 2.3,-4.19 4.53,-4.19 2.64,0 4.19,2.74 4.19,3.53 0,0.36 -0.3,0.5 -0.59,0.5 -0.36,0 -0.5,-0.14 -0.66,-0.5 -0.89,-2.43 -2.69,-2.43 -2.78,-2.43 -1.55,0 -1.55,3.89 -1.55,5.07 0,1.05 0,1.16 0.5,1.76 4.69,5.87 5.74,11.65 5.74,11.7 0,0.11 -0.07,0.5 -0.61,0.5 -0.5,0 -0.5,-0.14 -0.75,-1.05 -0.89,-3.14 -2.53,-6.92 -4.88,-9.86 z"
         inkscape:connector-curvature="0"
         style="fill:#000000;stroke-width:0" /><path
         id="path1674"
         d="m 924.34,408.45 v 0.37 0.39 l -0.01,0.39 -0.01,0.41 -0.04,0.84 -0.06,0.88 -0.09,0.92 -0.1,0.95 -0.14,0.98 -0.16,1 -0.2,1.02 -0.23,1.03 -0.26,1.06 -0.31,1.05 -0.35,1.07 -0.39,1.07 -0.21,0.53 -0.23,0.53 -0.24,0.53 -0.25,0.53 c -2.98,6.12 -7.26,9.36 -7.76,9.36 -0.3,0 -0.5,-0.19 -0.5,-0.48 0,-0.16 0,-0.26 0.93,-1.16 4.89,-4.92 7.74,-12.84 7.74,-23.27 0,-8.51 -1.85,-17.28 -8.03,-23.56 -0.64,-0.59 -0.64,-0.7 -0.64,-0.84 0,-0.3 0.2,-0.5 0.5,-0.5 0.5,0 4.97,3.39 7.92,9.72 2.53,5.46 3.12,11 3.12,15.18 z"
         inkscape:connector-curvature="0"
         style="fill:#000000;stroke-width:0" /><path
         id="path1676"
         d="m 938.58,407.52 h 0.14 0.16 0.17 0.17 l 0.19,0.01 h 0.2 l 0.21,0.01 0.22,0.01 0.22,0.01 0.23,0.01 0.24,0.01 0.25,0.02 0.25,0.02 0.25,0.02 0.53,0.05 0.53,0.07 0.55,0.08 0.54,0.09 0.54,0.11 0.54,0.12 0.26,0.07 0.26,0.08 0.25,0.08 0.25,0.08 0.24,0.09 0.24,0.1 c 3.48,1.5 3.73,4.43 3.73,5.12 0,2.2 -1.89,4.24 -5.33,4.24 v -1.1 c 2.35,0 3.69,-1.44 3.69,-3.14 0,-5.17 -7.97,-5.17 -10.02,-5.17 h -2.04 c 1.95,7.56 7.08,8.31 8.37,8.31 v 1.1 c -5.53,0 -13.04,-4.83 -13.04,-13.55 0,-5.08 2.93,-9.02 7.81,-9.02 7.12,0 11.31,5.28 11.31,5.88 0,0.29 -0.29,0.65 -0.59,0.65 -0.25,0 -0.35,-0.1 -0.66,-0.5 -3.94,-4.93 -9.36,-4.93 -9.95,-4.93 -3.89,0 -4.34,4.18 -4.34,5.78 0,0.59 0.04,2.14 0.79,5.19 z"
         inkscape:connector-curvature="0"
         style="fill:#000000;stroke-width:0" /><path
         id="path1678"
         d="m 978.36,433.52 h 0.06 0.05 0.11 0.12 0.06 l 0.06,0.01 h 0.06 l 0.06,0.01 0.05,0.01 0.06,0.01 0.06,0.01 0.05,0.02 0.06,0.01 0.05,0.02 0.05,0.02 0.05,0.03 0.05,0.02 0.04,0.03 0.04,0.03 0.04,0.04 0.04,0.04 0.02,0.02 0.02,0.02 0.01,0.02 0.02,0.03 0.01,0.02 0.01,0.03 0.02,0.02 0.01,0.03 0.01,0.03 0.01,0.03 0.01,0.03 v 0.03 l 0.01,0.04 v 0.03 l 0.01,0.04 v 0.03 0.04 0.04 c 0,0.86 -0.79,0.86 -1.39,0.86 H 957.6 c -0.57,0 -1.39,0 -1.39,-0.83 0,-0.87 0.79,-0.87 1.39,-0.87 z"
         inkscape:connector-curvature="0"
         style="fill:#000000;stroke-width:0" /><path
         id="path1680"
         d="m 1011.1,455.89 h -19.07 l -0.58,-5.92 h 1.05 c 0.42,4.53 1.38,4.83 5.41,4.83 0.53,0 1.42,0 1.59,-0.03 0.7,-0.05 0.7,-0.15 0.7,-0.93 v -12.62 c 0,-0.8 0,-1.05 -2.61,-1.05 h -1.25 v -1.09 c 1.25,0.09 3.86,0.09 5.26,0.09 1.3,0 4,0 5.2,-0.09 v 1.09 h -1.2 c -2.7,0 -2.7,0.25 -2.7,1.05 v 12.62 c 0,0.74 0,0.86 0.7,0.93 0.2,0.03 1.1,0.03 1.6,0.03 4,0 5,-0.28 5.4,-4.83 h 1.1 z"
         inkscape:connector-curvature="0"
         style="fill:#000000;stroke-width:0" /><path
         id="path1682"
         d="m 1028.9,455.94 v 0.04 0.04 0.03 0.04 0.03 0.04 0.03 0.04 0.03 0.03 0.03 0.03 0.02 0.03 l -0.1,0.02 v 0.03 0.02 0.02 0.02 0.02 0.02 0.01 l -0.1,0.02 v 0.01 0.01 0.01 0.01 h -0.1 v 0 0.01 0 0 0.01 0 h -0.1 v 0 0 0 c -0.1,0 -0.3,0 -0.5,-0.33 l -1,-1.43 c -1.2,1.06 -2.7,1.76 -5,1.76 -3.5,0 -6.1,-2.19 -6.1,-4.7 0,-1.41 0.8,-2.47 1.6,-3.13 1.2,-1.06 2.5,-1.31 3.6,-1.53 0.5,-0.11 3.8,-0.75 4,-0.78 1.6,-0.39 3.1,-1.64 3.1,-3.34 0,-1.77 -1.7,-3.54 -4.6,-3.54 -1.1,0 -3.2,0.16 -4.8,1.15 -1.1,0.79 -1.8,1.92 -1.8,3.39 0,0.42 0,0.57 -0.5,0.57 -0.6,0 -0.6,-0.2 -0.6,-0.71 v -4.79 c 0,-0.43 0,-0.7 0.4,-0.7 0.3,0 0.3,0.08 0.5,0.3 0.1,0.15 1,1.37 1,1.39 1.8,-1.39 4.1,-1.69 5.8,-1.69 3.8,0 6.2,2.47 6.2,5.06 0,1.86 -1.2,2.96 -1.6,3.38 -1.2,1.15 -2.6,1.41 -4.6,1.8 -1.4,0.28 -2.8,0.54 -3.1,0.62 -1,0.2 -3,1.13 -3,3.02 0,1.64 1.8,3.21 4.5,3.21 4.5,0 5.6,-2.95 5.8,-4.76 0.1,-0.34 0.2,-0.42 0.6,-0.42 0.5,0 0.5,0.17 0.5,0.7 z"
         inkscape:connector-curvature="0"
         style="fill:#000000;stroke-width:0" /><path
         id="path1684"
         d="m 1050.9,445.83 h -1 c -0.4,-2.89 -1.1,-5.66 -5.9,-5.66 h -3.1 c -1.2,0 -1.2,0.17 -1.2,0.95 v 12.83 c 0,0.77 0,1.05 2.4,1.05 h 1.1 v 1.09 c -1.4,-0.09 -3.3,-0.09 -4.7,-0.09 -1.5,0 -2.9,0.05 -4.2,0.09 V 455 h 0.8 c 2,0 2,-0.25 2,-1.03 V 441.2 c 0,-0.78 0,-1.03 -2,-1.03 h -0.8 v -1.09 h 15.8 z"
         inkscape:connector-curvature="0"
         style="fill:#000000;stroke-width:0" /><polyline
         id="polyline1686"
         points="990,434 1053.2,434 1053.2,435.8 990,435.8 "
         style="fill:#000000;fill-rule:nonzero;stroke-width:0" /><path
         id="path1688"
         d="m 1006.6,428.52 v 0.07 l 0.1,0.06 v 0.06 0.06 0.05 0.06 0.04 l 0.1,0.05 v 0.04 0.03 0.04 0.03 l 0.1,0.03 v 0.02 0.03 0.02 l 0.1,0.02 v 0.01 0.02 l 0.1,0.01 v 0.01 l 0.1,0.01 v 0.01 0.01 h 0.1 v 0 0 l 0.1,0.01 v 0 0 h 0.1 v 0 0 l 0.1,0.01 v 0 h 0.1 v 0 0 h 0.1 v 0 h 0.1 2.6 c 2.8,0 3.2,-0.77 3.2,-2.31 0,-0.18 0,-0.64 -0.2,-1.85 v -0.22 c 0,-0.25 0.1,-0.45 0.5,-0.45 0.5,0 0.5,0.22 0.6,0.67 l 0.6,4.47 c 0,0.24 0,0.3 0,0.39 0,0.42 -0.4,0.42 -0.8,0.42 h -17.43 c -0.65,0 -0.67,0 -0.87,-0.51 l -1.64,-4.6 c -0.03,-0.04 -0.16,-0.39 -0.16,-0.42 0,-0.14 0.1,-0.42 0.53,-0.42 0.39,0 0.42,0.08 0.64,0.67 1.13,2.97 1.85,4.16 5.23,4.16 h 2.7 c 0.2,0 0.5,0 0.8,-0.05 v -0.14 l -3.4,-13.33 c -0.1,-0.79 -0.2,-1.04 -2.84,-1.04 h -0.55 c -0.51,0 -0.55,-0.04 -0.67,-0.13 -0.13,-0.12 -0.22,-0.41 -0.22,-0.58 0,-0.14 0.09,-0.42 0.5,-0.42 0.75,0 1.55,0.08 2.3,0.08 0.78,0 1.48,0.01 2.28,0.01 0.8,0 1.6,-0.01 2.4,-0.01 0.8,0 1.6,-0.08 2.3,-0.08 0.2,0 0.7,0 0.7,0.7 0,0.43 -0.4,0.43 -0.8,0.43 h -0.6 c -0.6,0 -1.3,0 -1.9,0.12 -0.2,0.02 -0.4,0.05 -0.4,0.31 0,0.13 0,0.19 0.1,0.53 z"
         inkscape:connector-curvature="0"
         style="fill:#000000;stroke-width:0" /><path
         id="path1690"
         d="m 1022.8,422.04 v 0.04 0.03 0.03 0.04 0.03 0.02 0.03 0.03 0.03 0.02 0.03 0.02 0.02 0.03 0.02 0.02 0.02 0.01 0.02 0.02 0.03 0.03 0.03 l -0.1,0.02 v 0.02 0.02 0.02 0.01 l -0.1,0.01 v 0.01 0.01 l -0.1,0.01 v 0 0.01 0 h -0.1 v 0 0.01 0 h -0.1 v 0 0 h -0.1 v 0 0 0 h -0.1 v 0 0 h -0.1 v 0 h -0.1 c -1.7,-1.59 -4.5,-1.59 -5,-1.59 h -0.4 v -1.09 h 0.4 c 0.6,0 2.2,0.06 3.6,0.68 v -12.45 c 0,-0.77 0,-1.05 -2.6,-1.05 h -1.2 v -1.09 c 1.3,0.09 3.5,0.09 5,0.09 1.4,0 3.7,0 5,-0.09 v 1.09 h -1.2 c -2.7,0 -2.7,0.28 -2.7,1.05 z"
         inkscape:connector-curvature="0"
         style="fill:#000000;stroke-width:0" /><path
         id="path1692"
         d="m 1032.3,402.29 v -0.03 -0.04 -0.03 -0.04 -0.03 -0.03 -0.03 l -0.1,-0.02 v -0.03 -0.02 -0.03 -0.02 -0.02 -0.02 -0.02 -0.01 -0.02 -0.02 -0.01 -0.02 -0.01 -0.01 -0.01 -0.02 -0.01 -0.01 -0.01 0 -0.02 -0.02 c 0,-0.56 0.5,-0.86 0.9,-0.86 1,0 1.2,0.82 1.4,1.43 l 1.3,5.25 c 0.8,-1.02 1.8,-1.58 3.2,-1.58 v 0.86 c -2.2,0 -2.8,1.97 -2.8,2.22 0,0.06 0.7,2.87 0.7,2.93 1,3.75 3.6,4.43 4.6,4.43 1.1,0 2.4,-0.6 2.4,-2.65 0,-1.06 -0.5,-3.37 -1.3,-4.67 -1,-1.62 -2.5,-2.26 -3.6,-2.26 v 0 -0.86 c 3.5,0 7.2,3.29 7.2,6.9 0,2.64 -2,4.39 -4.6,4.39 -2.9,0 -6.1,-2.29 -6.9,-5.6 z"
         inkscape:connector-curvature="0"
         style="fill:#000000;stroke-width:0" /></g>  </g>
  <flowRoot
     xml:space="preserve"
     id="flowRoot1809"
     style="fill:black;stroke:none;stroke-opacity:1;stroke-width:1px;stroke-linejoin:miter;stroke-linecap:butt;fill-opacity:1;font-family:sans-serif;font-style:normal;font-weight:normal;font-size:50px;line-height:125%;letter-spacing:0px;word-spacing:0px"><flowRegion
       id="flowRegion1811"><rect
         id="rect1813"
         width="1171.0264"
         height="411.77335"
         x="-493.17459"
         y="93.912346" /></flowRegion><flowPara
       id="flowPara1815"></flowPara></flowRoot></svg>
