<?xml version="1.0" encoding="utf-8"?>
<!-- Generator: Adobe Illustrator 24.3.0, SVG Export Plug-In . SVG Version: 6.00 Build 0)  -->
<svg version="1.1" id="Layer_1" xmlns="http://www.w3.org/2000/svg" xmlns:xlink="http://www.w3.org/1999/xlink" x="0px" y="0px"
	 viewBox="0 0 414.57 129" style="enable-background:new 0 0 414.57 129;" xml:space="preserve">
<style type="text/css">
	.st0{fill:none;stroke:#010101;stroke-width:1.0797;stroke-miterlimit:1.7262;}
	.st1{fill:none;stroke:#010101;stroke-width:1.3445;stroke-miterlimit:1.7262;}
	.st2{fill:none;stroke:#010101;stroke-width:0.2166;stroke-miterlimit:1.7262;}
	.st3{fill:#010101;}
	.st4{font-family:'TimesNewRomanPSMT';}
	.st5{font-size:14px;}
	.st6{fill:none;stroke:#010101;stroke-width:1.9352;}
	.st7{fill:none;stroke:#010101;stroke-width:1.9672;stroke-miterlimit:1;}
	.st8{fill:none;}
	.st9{font-family:'MyriadPro-Regular';}
	.st10{font-size:12px;}
	
		.st11{fill-rule:evenodd;clip-rule:evenodd;fill:#010101;stroke:#010101;stroke-width:0.7425;stroke-linejoin:round;stroke-miterlimit:4.752;}
	.st12{font-size:12.9572px;}
	.st13{stroke:#000000;stroke-miterlimit:10;}
	.st14{fill:none;stroke:#010101;stroke-width:1.0876;stroke-miterlimit:1.7262;}
</style>
<path id="path5301" class="st0" d="M13.47,66.22c0.17-0.01,0.34-0.02,0.52-0.02c0.17-0.01,0.34-0.02,0.52-0.03
	c0.17-0.01,0.34-0.02,0.52-0.03c0.17-0.01,0.34-0.02,0.52-0.03c0.17-0.01,0.34-0.02,0.52-0.03c0.17-0.01,0.34-0.02,0.52-0.03
	c0.17-0.01,0.34-0.02,0.52-0.03c0.17-0.01,0.34-0.02,0.52-0.03c0.17-0.01,0.34-0.02,0.52-0.04c0.17-0.01,0.34-0.02,0.52-0.04
	c0.17-0.01,0.34-0.03,0.52-0.04c0.17-0.01,0.34-0.03,0.52-0.04c0.17-0.01,0.34-0.03,0.52-0.04c0.17-0.01,0.34-0.03,0.52-0.05
	c0.17-0.02,0.34-0.03,0.52-0.05c0.17-0.02,0.34-0.03,0.52-0.05c0.17-0.02,0.34-0.03,0.52-0.05c0.17-0.02,0.34-0.04,0.52-0.06
	c0.17-0.02,0.34-0.04,0.52-0.06c0.17-0.02,0.34-0.04,0.52-0.06c0.17-0.02,0.34-0.04,0.52-0.06c0.17-0.02,0.34-0.04,0.52-0.07
	c0.17-0.02,0.34-0.05,0.52-0.07c0.17-0.02,0.34-0.05,0.52-0.07c0.17-0.02,0.34-0.05,0.52-0.08c0.17-0.03,0.34-0.05,0.52-0.08
	c0.17-0.03,0.34-0.05,0.52-0.08c0.17-0.03,0.34-0.06,0.52-0.09c0.17-0.03,0.34-0.06,0.52-0.09c0.17-0.03,0.34-0.06,0.52-0.09
	c0.17-0.03,0.34-0.06,0.52-0.1c0.17-0.03,0.34-0.07,0.52-0.1c0.17-0.03,0.34-0.07,0.52-0.1c0.17-0.04,0.34-0.07,0.52-0.11
	c0.17-0.04,0.34-0.07,0.52-0.11c0.17-0.04,0.34-0.08,0.52-0.12c0.17-0.04,0.34-0.08,0.52-0.12c0.17-0.04,0.34-0.08,0.52-0.13
	c0.17-0.04,0.34-0.09,0.52-0.13s0.34-0.09,0.52-0.13c0.17-0.05,0.34-0.09,0.52-0.14c0.17-0.05,0.34-0.1,0.52-0.14
	s0.34-0.1,0.52-0.15c0.17-0.05,0.34-0.1,0.52-0.15c0.17-0.05,0.34-0.11,0.52-0.16c0.17-0.05,0.34-0.11,0.52-0.16
	c0.17-0.06,0.34-0.11,0.52-0.17c0.17-0.06,0.34-0.12,0.52-0.18c0.17-0.06,0.34-0.12,0.52-0.18c0.17-0.06,0.34-0.12,0.52-0.19
	c0.17-0.06,0.34-0.13,0.52-0.19c0.17-0.07,0.34-0.13,0.52-0.2c0.17-0.07,0.34-0.13,0.52-0.2c0.17-0.07,0.34-0.14,0.52-0.21
	c0.17-0.07,0.34-0.14,0.52-0.22c0.17-0.07,0.34-0.15,0.52-0.22c0.17-0.07,0.34-0.15,0.52-0.23c0.17-0.08,0.34-0.15,0.52-0.23
	c0.17-0.08,0.34-0.16,0.52-0.24c0.17-0.08,0.34-0.16,0.52-0.25c0.17-0.08,0.34-0.17,0.52-0.25c0.17-0.09,0.34-0.17,0.52-0.26
	c0.17-0.09,0.34-0.18,0.52-0.26c0.17-0.09,0.34-0.18,0.52-0.27c0.17-0.09,0.34-0.18,0.52-0.28c0.17-0.09,0.34-0.19,0.52-0.28
	c0.17-0.1,0.34-0.19,0.52-0.29c0.17-0.1,0.34-0.2,0.52-0.3c0.17-0.1,0.34-0.2,0.52-0.3s0.34-0.2,0.52-0.31s0.34-0.21,0.52-0.31
	c0.17-0.11,0.34-0.21,0.52-0.32s0.34-0.22,0.52-0.33c0.17-0.11,0.34-0.22,0.52-0.33c0.17-0.11,0.34-0.22,0.52-0.34
	c0.17-0.11,0.34-0.23,0.52-0.34c0.17-0.12,0.34-0.23,0.52-0.35c0.17-0.12,0.34-0.24,0.52-0.35c0.17-0.12,0.34-0.24,0.52-0.36
	c0.17-0.12,0.34-0.24,0.52-0.36c0.17-0.12,0.34-0.25,0.52-0.37c0.17-0.12,0.34-0.25,0.52-0.37c0.17-0.13,0.34-0.25,0.52-0.38
	c0.17-0.13,0.34-0.25,0.52-0.38c0.17-0.13,0.34-0.26,0.52-0.39c0.17-0.13,0.34-0.26,0.52-0.39c0.17-0.13,0.34-0.26,0.52-0.4
	c0.17-0.13,0.34-0.27,0.52-0.4c0.17-0.13,0.34-0.27,0.52-0.4c0.17-0.13,0.34-0.27,0.52-0.41c0.17-0.14,0.34-0.27,0.52-0.41
	c0.17-0.14,0.34-0.27,0.52-0.41c0.17-0.14,0.34-0.28,0.52-0.41c0.17-0.14,0.34-0.28,0.52-0.42c0.17-0.14,0.34-0.28,0.52-0.42
	c0.17-0.14,0.34-0.28,0.52-0.42c0.17-0.14,0.34-0.28,0.52-0.42c0.17-0.14,0.34-0.28,0.52-0.42c0.17-0.14,0.34-0.28,0.52-0.42
	s0.34-0.28,0.52-0.42c0.17-0.14,0.34-0.28,0.52-0.42c0.17-0.14,0.34-0.28,0.52-0.42c0.17-0.14,0.34-0.28,0.52-0.42
	c0.17-0.14,0.34-0.28,0.52-0.42c0.17-0.14,0.34-0.28,0.52-0.42c0.17-0.14,0.34-0.28,0.52-0.42c0.17-0.14,0.34-0.28,0.52-0.41
	c0.17-0.14,0.34-0.27,0.52-0.41c0.17-0.14,0.34-0.27,0.52-0.41c0.17-0.14,0.34-0.27,0.52-0.4c0.17-0.13,0.34-0.27,0.52-0.4
	c0.17-0.13,0.34-0.27,0.52-0.4c0.17-0.13,0.34-0.26,0.52-0.39s0.34-0.26,0.52-0.39c0.17-0.13,0.34-0.26,0.52-0.38
	c0.17-0.13,0.34-0.25,0.52-0.38c0.17-0.12,0.34-0.25,0.52-0.37s0.34-0.24,0.52-0.36c0.17-0.12,0.34-0.24,0.52-0.36
	s0.34-0.23,0.52-0.35c0.17-0.12,0.34-0.23,0.52-0.34s0.34-0.22,0.52-0.33c0.17-0.11,0.34-0.22,0.52-0.33
	c0.17-0.11,0.34-0.21,0.52-0.32c0.17-0.1,0.34-0.21,0.52-0.31s0.34-0.2,0.52-0.3c0.17-0.1,0.34-0.19,0.52-0.29
	c0.17-0.09,0.34-0.19,0.52-0.28c0.17-0.09,0.34-0.18,0.52-0.27c0.17-0.09,0.34-0.17,0.52-0.26c0.17-0.08,0.34-0.17,0.52-0.25
	c0.17-0.08,0.34-0.16,0.52-0.24c0.17-0.08,0.34-0.15,0.52-0.22c0.17-0.07,0.34-0.14,0.52-0.21c0.17-0.07,0.34-0.14,0.52-0.2
	c0.17-0.06,0.34-0.13,0.52-0.19c0.17-0.06,0.34-0.12,0.52-0.18c0.17-0.06,0.34-0.11,0.52-0.16c0.17-0.05,0.34-0.1,0.52-0.15
	s0.34-0.09,0.52-0.14c0.17-0.04,0.34-0.08,0.52-0.12s0.34-0.08,0.52-0.11c0.17-0.03,0.34-0.07,0.52-0.1s0.34-0.06,0.52-0.08
	c0.17-0.03,0.34-0.05,0.52-0.07s0.34-0.04,0.52-0.06c0.17-0.02,0.34-0.03,0.52-0.04c0.17-0.01,0.34-0.02,0.52-0.03
	c0.17-0.01,0.34-0.01,0.52-0.01c0.17,0,0.34,0,0.52,0c0.17,0,0.34,0.01,0.52,0.01c0.17,0.01,0.34,0.02,0.52,0.03
	c0.17,0.01,0.34,0.03,0.52,0.04c0.17,0.02,0.34,0.03,0.52,0.06c0.17,0.02,0.34,0.04,0.52,0.07c0.17,0.03,0.34,0.05,0.52,0.08
	c0.17,0.03,0.34,0.06,0.52,0.1s0.34,0.07,0.52,0.11c0.17,0.04,0.34,0.08,0.52,0.12c0.17,0.04,0.34,0.09,0.52,0.14
	c0.17,0.05,0.34,0.1,0.52,0.15c0.17,0.05,0.34,0.11,0.52,0.16c0.17,0.06,0.34,0.11,0.52,0.18s0.34,0.12,0.52,0.19
	c0.17,0.06,0.34,0.13,0.52,0.2c0.17,0.07,0.34,0.14,0.52,0.21c0.17,0.07,0.34,0.15,0.52,0.22c0.17,0.08,0.34,0.16,0.52,0.24
	c0.17,0.08,0.34,0.16,0.52,0.25c0.17,0.08,0.34,0.17,0.52,0.26c0.17,0.09,0.34,0.18,0.52,0.27s0.34,0.18,0.52,0.28
	c0.17,0.09,0.34,0.19,0.52,0.29c0.17,0.1,0.34,0.2,0.52,0.3c0.17,0.1,0.34,0.2,0.52,0.31c0.17,0.1,0.34,0.21,0.52,0.32
	c0.17,0.11,0.34,0.22,0.52,0.33c0.17,0.11,0.34,0.22,0.52,0.33c0.17,0.11,0.34,0.23,0.52,0.34c0.17,0.12,0.34,0.23,0.52,0.35
	c0.17,0.12,0.34,0.24,0.52,0.36c0.17,0.12,0.34,0.24,0.52,0.36c0.17,0.12,0.34,0.25,0.52,0.37c0.17,0.12,0.34,0.25,0.52,0.38
	c0.17,0.13,0.34,0.25,0.52,0.38c0.17,0.13,0.34,0.26,0.52,0.39c0.17,0.13,0.34,0.26,0.52,0.39c0.17,0.13,0.34,0.26,0.52,0.4
	s0.34,0.27,0.52,0.4c0.17,0.13,0.34,0.27,0.52,0.4s0.34,0.27,0.52,0.41c0.17,0.14,0.34,0.27,0.52,0.41
	c0.17,0.14,0.34,0.28,0.52,0.41c0.17,0.14,0.34,0.28,0.52,0.42c0.17,0.14,0.34,0.28,0.52,0.42c0.17,0.14,0.34,0.28,0.52,0.42
	s0.34,0.28,0.52,0.42c0.17,0.14,0.34,0.28,0.52,0.42c0.17,0.14,0.34,0.28,0.52,0.42c0.17,0.14,0.34,0.28,0.52,0.42
	c0.17,0.14,0.34,0.28,0.52,0.42c0.17,0.14,0.34,0.28,0.52,0.42c0.17,0.14,0.34,0.28,0.52,0.42c0.17,0.14,0.34,0.28,0.52,0.42
	s0.34,0.28,0.52,0.42c0.17,0.14,0.34,0.28,0.52,0.42c0.17,0.14,0.34,0.28,0.52,0.41c0.17,0.14,0.34,0.27,0.52,0.41
	s0.34,0.27,0.52,0.41c0.17,0.14,0.34,0.27,0.52,0.41c0.17,0.13,0.34,0.27,0.52,0.4c0.17,0.13,0.34,0.27,0.52,0.4
	c0.17,0.13,0.34,0.26,0.52,0.4c0.17,0.13,0.34,0.26,0.52,0.39s0.34,0.26,0.52,0.39c0.17,0.13,0.34,0.26,0.52,0.38
	s0.34,0.25,0.52,0.38c0.17,0.13,0.34,0.25,0.52,0.37c0.17,0.12,0.34,0.25,0.52,0.37c0.17,0.12,0.34,0.24,0.52,0.36
	c0.17,0.12,0.34,0.24,0.52,0.36c0.17,0.12,0.34,0.24,0.52,0.35s0.34,0.23,0.52,0.35c0.17,0.12,0.34,0.23,0.52,0.34
	c0.17,0.11,0.34,0.23,0.52,0.34c0.17,0.11,0.34,0.22,0.52,0.33c0.17,0.11,0.34,0.22,0.52,0.33c0.17,0.11,0.34,0.21,0.52,0.32
	c0.17,0.11,0.34,0.21,0.52,0.31c0.17,0.1,0.34,0.21,0.52,0.31s0.34,0.2,0.52,0.3c0.17,0.1,0.34,0.2,0.52,0.3
	c0.17,0.1,0.34,0.19,0.52,0.29s0.34,0.19,0.52,0.28c0.17,0.09,0.34,0.19,0.52,0.28c0.17,0.09,0.34,0.18,0.52,0.27
	c0.17,0.09,0.34,0.18,0.52,0.26c0.17,0.09,0.34,0.17,0.52,0.26c0.17,0.09,0.34,0.17,0.52,0.25c0.17,0.08,0.34,0.17,0.52,0.25
	c0.17,0.08,0.34,0.16,0.52,0.24c0.17,0.08,0.34,0.16,0.52,0.23c0.17,0.08,0.34,0.15,0.52,0.23c0.17,0.07,0.34,0.15,0.52,0.22
	c0.17,0.07,0.34,0.14,0.52,0.22c0.17,0.07,0.34,0.14,0.52,0.21c0.17,0.07,0.34,0.14,0.52,0.2c0.17,0.07,0.34,0.13,0.52,0.2
	c0.17,0.07,0.34,0.13,0.52,0.19c0.17,0.06,0.34,0.13,0.52,0.19c0.17,0.06,0.34,0.12,0.52,0.18c0.17,0.06,0.34,0.12,0.52,0.18
	c0.17,0.06,0.34,0.11,0.52,0.17c0.17,0.06,0.34,0.11,0.52,0.16c0.17,0.05,0.34,0.11,0.52,0.16c0.17,0.05,0.34,0.1,0.52,0.15
	c0.17,0.05,0.34,0.1,0.52,0.15s0.34,0.1,0.52,0.14c0.17,0.05,0.34,0.09,0.52,0.14c0.17,0.05,0.34,0.09,0.52,0.13
	c0.17,0.04,0.34,0.09,0.52,0.13c0.17,0.04,0.34,0.08,0.52,0.13c0.17,0.04,0.34,0.08,0.52,0.12c0.17,0.04,0.34,0.08,0.52,0.12
	c0.17,0.04,0.34,0.08,0.52,0.11c0.17,0.04,0.34,0.07,0.52,0.11c0.17,0.04,0.34,0.07,0.52,0.1c0.17,0.03,0.34,0.07,0.52,0.1
	c0.17,0.03,0.34,0.06,0.52,0.1c0.17,0.03,0.34,0.06,0.52,0.09c0.17,0.03,0.34,0.06,0.52,0.09c0.17,0.03,0.34,0.06,0.52,0.09
	c0.17,0.03,0.34,0.06,0.52,0.08c0.17,0.03,0.34,0.05,0.52,0.08c0.17,0.03,0.34,0.05,0.52,0.08s0.34,0.05,0.52,0.07
	c0.17,0.02,0.34,0.05,0.52,0.07c0.17,0.02,0.34,0.04,0.52,0.07c0.17,0.02,0.34,0.04,0.52,0.06c0.17,0.02,0.34,0.04,0.52,0.06
	c0.17,0.02,0.34,0.04,0.52,0.06c0.17,0.02,0.34,0.04,0.52,0.06s0.34,0.04,0.52,0.05c0.17,0.02,0.34,0.03,0.52,0.05
	c0.17,0.02,0.34,0.03,0.52,0.05c0.17,0.02,0.34,0.03,0.52,0.05c0.17,0.01,0.34,0.03,0.52,0.04c0.17,0.01,0.34,0.03,0.52,0.04
	c0.17,0.01,0.34,0.03,0.52,0.04s0.34,0.03,0.52,0.04c0.17,0.01,0.34,0.02,0.52,0.04c0.17,0.01,0.34,0.02,0.52,0.03
	c0.17,0.01,0.34,0.02,0.52,0.03c0.17,0.01,0.34,0.02,0.52,0.03s0.34,0.02,0.52,0.03s0.34,0.02,0.52,0.03
	c0.17,0.01,0.34,0.02,0.52,0.03c0.17,0.01,0.34,0.02,0.52,0.03s0.34,0.02,0.52,0.02"/>
<path id="path5348" class="st1" d="M236.2,66.5c0.03-0.07,0.06-0.13,0.09-0.2c0.03-0.07,0.06-0.14,0.09-0.2
	c0.03-0.07,0.06-0.14,0.09-0.21c0.03-0.07,0.06-0.14,0.09-0.21c0.03-0.07,0.06-0.14,0.09-0.21s0.06-0.14,0.09-0.2
	c0.03-0.07,0.06-0.14,0.09-0.2c0.03-0.07,0.06-0.13,0.09-0.2s0.06-0.13,0.09-0.2c0.03-0.06,0.06-0.13,0.09-0.19s0.06-0.12,0.09-0.19
	c0.03-0.06,0.06-0.12,0.09-0.18s0.06-0.12,0.09-0.17c0.03-0.06,0.06-0.11,0.09-0.16c0.03-0.05,0.06-0.11,0.09-0.16
	c0.03-0.05,0.06-0.1,0.09-0.15c0.03-0.05,0.06-0.09,0.09-0.14c0.03-0.04,0.06-0.09,0.09-0.13c0.03-0.04,0.06-0.08,0.09-0.12
	c0.03-0.04,0.06-0.07,0.09-0.1c0.03-0.03,0.06-0.06,0.09-0.09c0.03-0.03,0.06-0.05,0.09-0.08c0.03-0.02,0.06-0.05,0.09-0.07
	c0.03-0.02,0.06-0.04,0.09-0.05c0.03-0.01,0.06-0.03,0.09-0.04c0.03-0.01,0.06-0.02,0.09-0.02c0.03,0,0.06-0.01,0.09-0.01
	c0.03,0,0.06,0,0.09,0.01c0.03,0.01,0.06,0.01,0.09,0.02c0.03,0.01,0.06,0.02,0.09,0.04c0.03,0.02,0.06,0.03,0.09,0.06
	c0.03,0.02,0.06,0.04,0.09,0.07c0.03,0.03,0.06,0.06,0.09,0.09c0.03,0.03,0.06,0.07,0.09,0.1c0.03,0.04,0.06,0.08,0.09,0.12
	c0.03,0.04,0.06,0.09,0.09,0.13s0.06,0.1,0.09,0.15c0.03,0.05,0.06,0.11,0.09,0.16c0.03,0.06,0.06,0.12,0.09,0.18
	c0.03,0.06,0.06,0.13,0.09,0.19c0.03,0.07,0.06,0.14,0.09,0.21c0.03,0.07,0.06,0.14,0.09,0.22c0.03,0.08,0.06,0.15,0.09,0.23
	s0.06,0.16,0.09,0.24c0.03,0.08,0.06,0.17,0.09,0.26c0.03,0.09,0.06,0.18,0.09,0.27c0.03,0.09,0.06,0.18,0.09,0.28
	s0.06,0.19,0.09,0.28c0.03,0.1,0.06,0.19,0.09,0.29c0.03,0.1,0.06,0.2,0.09,0.3c0.03,0.1,0.06,0.2,0.09,0.31
	c0.03,0.1,0.06,0.21,0.09,0.31c0.03,0.1,0.06,0.21,0.09,0.31c0.03,0.11,0.06,0.21,0.09,0.32c0.03,0.11,0.06,0.21,0.09,0.32
	c0.03,0.11,0.06,0.21,0.09,0.32c0.03,0.11,0.06,0.21,0.09,0.32c0.03,0.11,0.06,0.21,0.09,0.32c0.03,0.1,0.06,0.21,0.09,0.31
	c0.03,0.1,0.06,0.21,0.09,0.31c0.03,0.1,0.06,0.2,0.09,0.3c0.03,0.1,0.06,0.2,0.09,0.29c0.03,0.1,0.06,0.19,0.09,0.29
	s0.06,0.19,0.09,0.28c0.03,0.09,0.06,0.18,0.09,0.27c0.03,0.09,0.06,0.17,0.09,0.25c0.03,0.08,0.06,0.16,0.09,0.24
	c0.03,0.08,0.06,0.15,0.09,0.23c0.03,0.07,0.06,0.14,0.09,0.21c0.03,0.07,0.06,0.13,0.09,0.19c0.03,0.06,0.06,0.12,0.09,0.17
	c0.03,0.05,0.06,0.11,0.09,0.15c0.03,0.05,0.06,0.09,0.09,0.13c0.03,0.04,0.06,0.08,0.09,0.11c0.03,0.03,0.06,0.06,0.09,0.09
	s0.06,0.05,0.09,0.07c0.03,0.02,0.06,0.03,0.09,0.04s0.06,0.02,0.09,0.02c0.03,0,0.06,0,0.09-0.01c0.03-0.01,0.06-0.02,0.09-0.03
	c0.03-0.02,0.06-0.04,0.09-0.06c0.03-0.02,0.06-0.05,0.09-0.09c0.03-0.03,0.06-0.07,0.09-0.12c0.03-0.04,0.06-0.09,0.09-0.15
	c0.03-0.05,0.06-0.11,0.09-0.17s0.06-0.13,0.09-0.2c0.03-0.07,0.06-0.15,0.09-0.23c0.03-0.08,0.06-0.17,0.09-0.26
	c0.03-0.09,0.06-0.19,0.09-0.29c0.03-0.1,0.06-0.21,0.09-0.32c0.03-0.11,0.06-0.23,0.09-0.35c0.03-0.12,0.06-0.25,0.09-0.38
	c0.03-0.13,0.06-0.27,0.09-0.41c0.03-0.14,0.06-0.29,0.09-0.44s0.06-0.31,0.09-0.47c0.03-0.16,0.06-0.33,0.09-0.49
	c0.03-0.17,0.06-0.34,0.09-0.52c0.03-0.18,0.06-0.36,0.09-0.55c0.03-0.19,0.06-0.38,0.09-0.57c0.03-0.2,0.06-0.4,0.09-0.6
	s0.06-0.41,0.09-0.62c0.03-0.21,0.06-0.43,0.09-0.65c0.03-0.22,0.06-0.44,0.09-0.67c0.03-0.23,0.06-0.46,0.09-0.69
	c0.03-0.23,0.06-0.47,0.09-0.71c0.03-0.24,0.06-0.48,0.09-0.73s0.06-0.49,0.09-0.74c0.03-0.25,0.06-0.5,0.09-0.76
	c0.03-0.25,0.06-0.51,0.09-0.77c0.03-0.26,0.06-0.52,0.09-0.78c0.03-0.26,0.06-0.53,0.09-0.8c0.03-0.27,0.06-0.53,0.09-0.8
	c0.03-0.27,0.06-0.54,0.09-0.81s0.06-0.54,0.09-0.82c0.03-0.27,0.06-0.55,0.09-0.82c0.03-0.27,0.06-0.55,0.09-0.83
	c0.03-0.28,0.06-0.55,0.09-0.83c0.03-0.28,0.06-0.55,0.09-0.82c0.03-0.27,0.06-0.55,0.09-0.82c0.03-0.27,0.06-0.55,0.09-0.82
	c0.03-0.27,0.06-0.54,0.09-0.81c0.03-0.27,0.06-0.54,0.09-0.8c0.03-0.27,0.06-0.53,0.09-0.79c0.03-0.26,0.06-0.52,0.09-0.78
	c0.03-0.26,0.06-0.51,0.09-0.77c0.03-0.25,0.06-0.51,0.09-0.75c0.03-0.25,0.06-0.49,0.09-0.74c0.03-0.24,0.06-0.48,0.09-0.72
	s0.06-0.47,0.09-0.7c0.03-0.23,0.06-0.45,0.09-0.68c0.03-0.22,0.06-0.44,0.09-0.65c0.03-0.21,0.06-0.42,0.09-0.63
	c0.03-0.21,0.06-0.41,0.09-0.6c0.03-0.2,0.06-0.39,0.09-0.57c0.03-0.19,0.06-0.37,0.09-0.55c0.03-0.18,0.06-0.35,0.09-0.51
	c0.03-0.17,0.06-0.33,0.09-0.48c0.03-0.16,0.06-0.31,0.09-0.45c0.03-0.14,0.06-0.28,0.09-0.42s0.06-0.26,0.09-0.38
	c0.03-0.12,0.06-0.24,0.09-0.35c0.03-0.11,0.06-0.21,0.09-0.31c0.03-0.1,0.06-0.19,0.09-0.27c0.03-0.08,0.06-0.16,0.09-0.24
	c0.03-0.07,0.06-0.14,0.09-0.2s0.06-0.11,0.09-0.16c0.03-0.05,0.06-0.09,0.09-0.12s0.06-0.06,0.09-0.08
	c0.03-0.02,0.06-0.03,0.09-0.04c0.03-0.01,0.06-0.01,0.09,0c0.03,0.01,0.06,0.02,0.09,0.04c0.03,0.02,0.06,0.05,0.09,0.08
	c0.03,0.03,0.06,0.07,0.09,0.12c0.03,0.05,0.06,0.1,0.09,0.16c0.03,0.06,0.06,0.12,0.09,0.2c0.03,0.07,0.06,0.15,0.09,0.24
	c0.03,0.08,0.06,0.18,0.09,0.27c0.03,0.1,0.06,0.2,0.09,0.31c0.03,0.11,0.06,0.23,0.09,0.35c0.03,0.12,0.06,0.25,0.09,0.38
	c0.03,0.13,0.06,0.27,0.09,0.42c0.03,0.14,0.06,0.29,0.09,0.45c0.03,0.16,0.06,0.32,0.09,0.48c0.03,0.17,0.06,0.34,0.09,0.51
	c0.03,0.18,0.06,0.36,0.09,0.55c0.03,0.19,0.06,0.38,0.09,0.57c0.03,0.2,0.06,0.4,0.09,0.6c0.03,0.21,0.06,0.41,0.09,0.63
	c0.03,0.21,0.06,0.43,0.09,0.65c0.03,0.22,0.06,0.45,0.09,0.68c0.03,0.23,0.06,0.46,0.09,0.7c0.03,0.24,0.06,0.48,0.09,0.72
	c0.03,0.24,0.06,0.49,0.09,0.74c0.03,0.25,0.06,0.5,0.09,0.75c0.03,0.25,0.06,0.51,0.09,0.77c0.03,0.26,0.06,0.52,0.09,0.78
	c0.03,0.26,0.06,0.53,0.09,0.79c0.03,0.27,0.06,0.53,0.09,0.8c0.03,0.27,0.06,0.54,0.09,0.81s0.06,0.54,0.09,0.82
	c0.03,0.27,0.06,0.55,0.09,0.82s0.06,0.55,0.09,0.82c0.03,0.28,0.06,0.55,0.09,0.83c0.03,0.28,0.06,0.55,0.09,0.83
	c0.03,0.27,0.06,0.55,0.09,0.82c0.03,0.27,0.06,0.55,0.09,0.82c0.03,0.27,0.06,0.54,0.09,0.81c0.03,0.27,0.06,0.54,0.09,0.8
	c0.03,0.27,0.06,0.53,0.09,0.8c0.03,0.26,0.06,0.52,0.09,0.78c0.03,0.26,0.06,0.52,0.09,0.77c0.03,0.25,0.06,0.51,0.09,0.76
	c0.03,0.25,0.06,0.5,0.09,0.74c0.03,0.24,0.06,0.49,0.09,0.73c0.03,0.24,0.06,0.47,0.09,0.71c0.03,0.23,0.06,0.46,0.09,0.69
	c0.03,0.23,0.06,0.45,0.09,0.67s0.06,0.43,0.09,0.65c0.03,0.21,0.06,0.42,0.09,0.62c0.03,0.2,0.06,0.4,0.09,0.6
	c0.03,0.2,0.06,0.39,0.09,0.57c0.03,0.19,0.06,0.37,0.09,0.55c0.03,0.18,0.06,0.35,0.09,0.52s0.06,0.33,0.09,0.49
	c0.03,0.16,0.06,0.32,0.09,0.47s0.06,0.3,0.09,0.44c0.03,0.14,0.06,0.28,0.09,0.41c0.03,0.13,0.06,0.26,0.09,0.38
	c0.03,0.12,0.06,0.24,0.09,0.35s0.06,0.22,0.09,0.32c0.03,0.1,0.06,0.2,0.09,0.29c0.03,0.09,0.06,0.18,0.09,0.26
	c0.03,0.08,0.06,0.16,0.09,0.23s0.06,0.14,0.09,0.2c0.03,0.06,0.06,0.12,0.09,0.17s0.06,0.1,0.09,0.15s0.06,0.08,0.09,0.12
	s0.06,0.06,0.09,0.09c0.03,0.02,0.06,0.05,0.09,0.06c0.03,0.02,0.06,0.03,0.09,0.03c0.03,0.01,0.06,0.01,0.09,0.01
	c0.03,0,0.06-0.01,0.09-0.02c0.03-0.01,0.06-0.02,0.09-0.04c0.03-0.02,0.06-0.04,0.09-0.07c0.03-0.03,0.06-0.06,0.09-0.09
	c0.03-0.03,0.06-0.07,0.09-0.11c0.03-0.04,0.06-0.09,0.09-0.13c0.03-0.05,0.06-0.1,0.09-0.15s0.06-0.11,0.09-0.17
	c0.03-0.06,0.06-0.13,0.09-0.19c0.03-0.07,0.06-0.14,0.09-0.21c0.03-0.07,0.06-0.15,0.09-0.23c0.03-0.08,0.06-0.16,0.09-0.24
	c0.03-0.08,0.06-0.17,0.09-0.25c0.03-0.09,0.06-0.18,0.09-0.27c0.03-0.09,0.06-0.18,0.09-0.28c0.03-0.09,0.06-0.19,0.09-0.29
	c0.03-0.1,0.06-0.19,0.09-0.29c0.03-0.1,0.06-0.2,0.09-0.3c0.03-0.1,0.06-0.2,0.09-0.31s0.06-0.21,0.09-0.31
	c0.03-0.1,0.06-0.21,0.09-0.32c0.03-0.11,0.06-0.21,0.09-0.32c0.03-0.11,0.06-0.21,0.09-0.32c0.03-0.11,0.06-0.21,0.09-0.32
	c0.03-0.11,0.06-0.21,0.09-0.32c0.03-0.11,0.06-0.21,0.09-0.31c0.03-0.1,0.06-0.21,0.09-0.31s0.06-0.2,0.09-0.31
	c0.03-0.1,0.06-0.2,0.09-0.3c0.03-0.1,0.06-0.2,0.09-0.29c0.03-0.1,0.06-0.19,0.09-0.28c0.03-0.09,0.06-0.19,0.09-0.28
	c0.03-0.09,0.06-0.18,0.09-0.27c0.03-0.09,0.06-0.17,0.09-0.26c0.03-0.08,0.06-0.16,0.09-0.24c0.03-0.08,0.06-0.16,0.09-0.23
	c0.03-0.08,0.06-0.15,0.09-0.22c0.03-0.07,0.06-0.14,0.09-0.21s0.06-0.13,0.09-0.19c0.03-0.06,0.06-0.12,0.09-0.18
	c0.03-0.06,0.06-0.11,0.09-0.16c0.03-0.05,0.06-0.1,0.09-0.15c0.03-0.05,0.06-0.09,0.09-0.13c0.03-0.04,0.06-0.08,0.09-0.12
	c0.03-0.04,0.06-0.07,0.09-0.1c0.03-0.03,0.06-0.06,0.09-0.09c0.03-0.03,0.06-0.05,0.09-0.07c0.03-0.02,0.06-0.04,0.09-0.06
	c0.03-0.02,0.06-0.03,0.09-0.04c0.03-0.01,0.06-0.02,0.09-0.02c0.03-0.01,0.06-0.01,0.09-0.01c0.03,0,0.06,0,0.09,0.01
	c0.03,0,0.06,0.01,0.09,0.02c0.03,0.01,0.06,0.02,0.09,0.04c0.03,0.01,0.06,0.03,0.09,0.05c0.03,0.02,0.06,0.04,0.09,0.07
	c0.03,0.02,0.06,0.05,0.09,0.08c0.03,0.03,0.06,0.06,0.09,0.09c0.03,0.03,0.06,0.07,0.09,0.1c0.03,0.04,0.06,0.08,0.09,0.12
	c0.03,0.04,0.06,0.08,0.09,0.13c0.03,0.04,0.06,0.09,0.09,0.14c0.03,0.05,0.06,0.1,0.09,0.15c0.03,0.05,0.06,0.1,0.09,0.16
	c0.03,0.05,0.06,0.11,0.09,0.16c0.03,0.06,0.06,0.11,0.09,0.17c0.03,0.06,0.06,0.12,0.09,0.18c0.03,0.06,0.06,0.12,0.09,0.19
	c0.03,0.06,0.06,0.13,0.09,0.19c0.03,0.06,0.06,0.13,0.09,0.2c0.03,0.07,0.06,0.13,0.09,0.2s0.06,0.13,0.09,0.2
	c0.03,0.07,0.06,0.14,0.09,0.2c0.03,0.07,0.06,0.14,0.09,0.21c0.03,0.07,0.06,0.14,0.09,0.21c0.03,0.07,0.06,0.14,0.09,0.21
	c0.03,0.07,0.06,0.14,0.09,0.2c0.03,0.07,0.06,0.14,0.09,0.2"/>
<path id="path5360" class="st0" d="M261.56,66.23h117.47"/>
<g>
	<path id="path5414" class="st0" d="M273.97,48.6h45.41"/>
	<path id="path5416" class="st0" d="M274.51,65.95V48.06"/>
	<path id="path5418" class="st0" d="M318.83,65.95V48.06"/>
</g>
<path id="path5247" class="st2" d="M393.66,93.15h1.37"/>
<text transform="matrix(1 0 0 1 65.7959 25.1601)" class="st3 st4 st5">Δ ≠ 0 Hz</text>
<text transform="matrix(1 0 0 1 224.2374 25.1601)" class="st3 st4 st5">Δ = 0 Hz</text>
<g>
	<path id="path5277" class="st0" d="M167.47,66.23h69.33"/>
	<g>
		<g id="g5388" transform="matrix(0.97778006,0,0,0.97778006,325.36868,374.8253)">
			<g id="g5393" transform="translate(34.075112,0)">
				<g id="g5398" transform="matrix(1.7049251,0,0,0.99238495,-68.544411,-1.1238489)">
					<path id="path5382" class="st6" d="M-68.91-316.98l4.01-19.11"/>
					<path id="path5403" class="st7" d="M-42.91-336.09l4.01,19.11"/>
				</g>
			</g>
		</g>
		<path id="path5405" class="st0" d="M183.25,47.61h37.69"/>
		<path id="path5186" class="st0" d="M226.29,65.77h1.38"/>
	</g>
	<rect x="187.28" y="51.65" class="st8" width="29.62" height="10.72"/>
	<text transform="matrix(1 0 0 1 187.2845 60.1658)" class="st9 st10">SPOIL</text>
</g>
<rect x="286.63" y="53.48" class="st8" width="29.62" height="10.72"/>
<text transform="matrix(1 0 0 1 286.6267 61.9969)" class="st9 st10">IMG</text>
<path id="path5277_1_" class="st0" d="M318.83,66.19h60.19"/>
<g>
	<g id="g5388_1_" transform="matrix(0.97778006,0,0,0.97778006,325.36868,374.8253)">
		<g id="g5393_1_" transform="translate(34.075112,0)">
			<g id="g5398_1_" transform="matrix(1.7049251,0,0,0.99238495,-68.544411,-1.1238489)">
				<path id="path5382_1_" class="st6" d="M21.88-317.02l4.01-19.11"/>
				<path id="path5403_1_" class="st7" d="M47.89-336.13l4.01,19.11"/>
			</g>
		</g>
	</g>
	<path id="path5405_1_" class="st0" d="M334.61,47.57h37.69"/>
	<path id="path5186_1_" class="st0" d="M377.65,65.73h1.38"/>
</g>
<rect x="338.65" y="51.61" class="st8" width="29.62" height="10.72"/>
<text transform="matrix(1 0 0 1 338.6451 60.1259)" class="st9 st10">SPOIL</text>
<path id="path6199" class="st11" d="M365.81,104.35l12.98,4.77l-12.98,4.77C367.88,111.08,367.87,107.22,365.81,104.35z"/>
<text transform="matrix(1.0805 0 0 1 195.5623 99.5373)" class="st3 st4 st12">TR</text>
<path id="path6195" class="st11" d="M26.45,113.89l-12.98-4.77l12.98-4.77C24.38,107.17,24.39,111.02,26.45,113.89z"/>
<line class="st13" x1="13.47" y1="109.12" x2="377.65" y2="109.12"/>
<g id="g5765" transform="translate(-128.28272,163.13398)">
	<g id="g5745" transform="translate(162.39249)">
		<path id="path5749" class="st14" d="M346.06-97.41h1.09"/>
		<path id="path5751" class="st14" d="M349.26-97.41h1.09"/>
		<path id="path5753" class="st14" d="M352.46-97.41h1.09"/>
		<path id="path5755" class="st14" d="M355.66-97.41h1.09"/>
		<path id="path5757" class="st14" d="M358.86-97.41h1.09"/>
		<path id="path5759" class="st14" d="M362.06-97.41h1.09"/>
		<path id="path5761" class="st14" d="M365.26-97.41h1.09"/>
		<path id="path5763" class="st14" d="M368.46-97.41h1.09"/>
	</g>
</g>
</svg>
